<?xml version="1.0" encoding="UTF-8" standalone="no"?>
<!DOCTYPE svg PUBLIC "-//W3C//DTD SVG 1.1//EN" "http://www.w3.org/Graphics/SVG/1.1/DTD/svg11.dtd">
<svg width="100%" height="100%" viewBox="0 0 1920 1080" version="1.1" xmlns="http://www.w3.org/2000/svg" xmlns:xlink="http://www.w3.org/1999/xlink" xml:space="preserve" xmlns:serif="http://www.serif.com/" style="fill-rule:evenodd;clip-rule:evenodd;stroke-linejoin:round;stroke-miterlimit:2;">
    <rect x="0" y="0" width="1920" height="1080" style="fill:white;"/>
    <g transform="matrix(1,0,0,1,0,-12)">
        <g id="ec-vitoria-logo.svg" transform="matrix(1.07154,0,0,1.07154,371.081,540)">
            <g transform="matrix(1,0,0,1,-350,-350)">
                <g id="g10" transform="matrix(0.925744,0,0,-0.925744,-1337.81,696.519)">
                    <path id="path14" d="M1820.24,100.708L1815.88,102.886L1814.95,103.508L1809.66,106.308C1711.98,158.883 1637.32,250.966 1603.72,360.16L1596.56,386.292C1589.41,416.156 1585.67,446.643 1585.67,476.197C1585.67,484.286 1586.92,505.751 1587.23,508.551L1587.23,508.862L1587.54,516.328L1603.41,518.506C1679,529.394 1747.75,566.103 1808.73,632.366L1823.04,647.92L1837.35,632.677C1899.88,566.103 1967.38,529.394 2042.98,518.506L2058.53,516.328L2058.85,511.351L2059.16,508.862L2059.16,507.929C2059.16,506.995 2059.16,506.062 2059.47,504.818C2059.47,502.329 2059.78,498.907 2059.78,495.174C2060.09,487.708 2060.71,479.308 2060.71,474.642C2060.71,445.71 2057.29,415.845 2050.76,386.292L2043.91,360.16C2009.69,249.1 1932.85,155.772 1832.99,103.508L1823.66,98.842L1820.24,100.708Z" style="fill:white;"/>
                    <path id="path16" d="M1817.13,107.864L1814.95,103.508L1817.13,107.864L1817.75,107.553L1822.42,105.375L1823.66,104.442L1830.82,108.175C1929.43,159.505 2005.03,251.899 2038.94,361.715L2045.78,387.225C2052.31,416.467 2055.42,446.021 2055.42,474.642C2055.42,478.997 2055.11,487.397 2054.8,494.863C2054.49,498.285 2054.49,501.085 2054.18,503.573L2054.18,508.551L2053.87,511.04L2053.87,511.973L2042.36,513.528C1965.52,524.417 1896.77,562.059 1833.62,628.944L1823.04,640.454L1812.46,628.944C1750.87,562.059 1680.87,524.417 1604.03,513.528L1592.52,511.973L1592.21,508.862L1592.21,503.573L1591.9,503.573C1591.59,496.107 1590.65,482.108 1590.65,476.197C1590.65,447.266 1594.38,417.09 1601.54,387.536L1608.38,361.715C1641.98,253.766 1715.71,162.616 1811.84,110.663L1815.26,109.108L1817.13,107.864ZM1815.88,103.508L1814.95,103.508L1815.88,103.508ZM1819.93,100.397L1820.24,100.708L1819.93,100.397ZM1822.73,93.864L1822.42,93.553L1817.75,96.042L1813.39,98.531L1813.08,98.531L1802.82,103.819L1802.82,104.13C1706.38,157.638 1632.34,249.722 1598.74,358.915L1591.59,385.047C1584.43,415.534 1580.7,446.332 1580.7,476.197C1580.7,484.597 1581.94,506.062 1581.94,508.862L1582.25,508.862L1582.25,513.839L1582.88,520.684L1602.47,523.483C1677.14,534.372 1744.64,570.458 1805,635.788L1823.04,655.387L1841.08,636.099C1902.99,570.147 1969.25,534.372 2043.6,523.483L2063.51,520.684L2063.82,516.639L2063.82,513.839L2064.14,508.862L2064.14,508.24C2064.14,507.307 2064.45,506.373 2064.45,505.129C2064.45,502.64 2064.76,499.218 2064.76,495.485C2065.38,488.019 2065.69,479.308 2065.69,474.642C2065.69,445.088 2062.27,414.912 2055.42,385.047L2048.58,358.915C2014.05,246.3 1936.59,152.039 1835.48,99.153L1823.97,93.242L1822.73,93.864Z" style="fill:white;"/>
                    <path id="path18" d="M1823.66,112.219L1827.39,114.397C1924.45,164.794 1999.12,255.633 2032.4,363.893L2032.71,364.515L2035.51,374.159L2037.38,381.625C2044.85,412.734 2048.58,444.155 2048.58,474.331C2048.58,481.175 2047.65,499.218 2047.34,505.751L2041.42,506.684C1962.72,517.884 1892.41,556.459 1828.64,624.277L1823.04,630.188L1817.75,624.277C1754.91,556.459 1683.67,517.884 1604.96,506.684L1599.05,505.751C1599.05,505.44 1599.05,504.818 1598.74,504.507L1599.05,504.507C1598.74,502.018 1598.74,498.596 1598.43,495.174C1598.12,488.019 1597.81,479.93 1597.81,476.197C1597.81,445.399 1601.85,413.357 1609.94,381.625L1611.81,374.159L1614.92,363.893C1648.52,255.633 1723.18,164.794 1819.93,114.397L1820.24,114.085L1823.66,112.219ZM1820.24,100.708L1815.88,102.886L1814.95,103.508L1809.66,106.308C1711.98,158.883 1637.32,250.966 1603.72,360.16L1596.56,386.292C1589.41,416.156 1585.67,446.643 1585.67,476.197C1585.67,484.286 1586.92,505.751 1587.23,508.551L1587.23,508.862L1587.54,516.328L1603.41,518.506C1679,529.394 1747.75,566.103 1808.73,632.366L1823.04,647.92L1837.35,632.677C1899.88,566.103 1967.38,529.394 2042.98,518.506L2058.53,516.328L2058.85,511.351L2059.16,508.862L2059.16,507.929C2059.16,506.995 2059.16,506.062 2059.47,504.818C2059.47,502.329 2059.78,498.907 2059.78,495.174C2060.09,487.708 2060.71,479.308 2060.71,474.642C2060.71,445.71 2057.29,415.845 2050.76,386.292L2043.91,360.16C2009.69,249.1 1932.85,155.772 1832.99,103.508L1823.66,98.842L1820.24,100.708Z"/>
                    <path id="path20" d="M2024.32,366.693L1623.01,366.693L1623.32,366.07C1655.98,260.299 1728.78,171.327 1823.35,122.174L1823.97,122.174C1918.54,171.638 1991.65,260.299 2024.32,366.07L2024.32,366.693Z"/>
                    <path id="path22" d="M2024.32,366.07C2037.38,410.246 2042.05,456.287 2039.25,498.596C1959.3,509.795 1887.43,549.304 1823.04,618.056C1759.89,549.304 1687.09,509.795 1607.14,498.596C1604.03,456.287 1609.63,410.246 1623.32,366.07L2024.32,366.07Z" style="fill:rgb(228,6,19);"/>
                    <path id="path24" d="M1666.87,483.663L1712.91,507.618C1712.29,493.307 1713.85,475.886 1720.69,462.198L1765.17,365.448L1765.17,311.318L1698.6,450.377C1691.76,463.442 1678.07,472.775 1666.87,483.663Z" style="fill:white;"/>
                    <path id="path26" d="M1984.18,479.619L1938.45,503.262C1939.08,488.952 1936.59,471.842 1930.68,458.154L1858.81,296.386L1887.12,300.43L1952.76,446.021C1958.67,459.087 1972.99,468.731 1984.18,479.619Z" style="fill:white;"/>
                    <path id="path28" d="M1761.13,209.902L1802.19,209.902L1802.19,351.76L1845.13,351.76C1854.15,351.76 1859.44,340.561 1866.28,334.65L1866.59,393.136C1859.44,387.536 1854.77,377.581 1845.75,377.581L1802.82,377.581L1802.19,435.444L1774.82,427.045L1774.82,232.923C1774.82,224.212 1765.8,217.679 1761.13,209.902Z" style="fill:white;"/>
                    <path id="path30" d="M1775.44,470.598L1775.44,509.795C1775.44,518.817 1767.04,525.35 1761.75,532.505L1889.3,532.505L1889.3,493.307C1879.35,499.84 1870.95,511.662 1859.44,511.662L1802.82,511.662L1802.82,475.886L1775.44,470.598Z" style="fill:white;"/>
                    <path id="path32" d="M1862.55,209.28L1904.86,209.28L1904.86,248.477C1902.99,246.922 1902.06,230.745 1870.95,230.745L1862.55,209.28Z" style="fill:white;"/>
                    <path id="path34" d="M1811.84,246.3L1811.84,207.413L1832.06,167.593L1871.57,256.255L1846.99,255.633L1829.26,210.524L1811.84,246.3Z" style="fill:white;"/>
                    <path id="path36" d="M1765.17,300.43C1732.51,314.74 1702.02,338.694 1680.56,366.07C1687.09,379.759 1700.16,393.447 1711.67,400.291L1698.6,423.934C1682.42,412.112 1665,399.046 1657.23,381.003C1654.43,374.47 1648.83,369.804 1643.54,366.07C1648.83,363.271 1652.56,363.893 1657.85,356.116C1684.29,318.473 1724.11,289.231 1765.17,274.298L1765.17,300.43Z" style="fill:white;"/>
                    <path id="path38" d="M1735.93,448.51L1748.07,425.178C1802.82,449.754 1856.64,450.377 1906.1,431.711L1915.74,452.554C1861.92,475.886 1796.28,474.02 1735.93,448.51Z" style="fill:white;"/>
                    <path id="path40" d="M1955.56,432.333L1946.54,411.49L1963.34,403.091C1968.01,401.224 1969.87,394.691 1972.99,390.647L1987.92,423.312C1982.32,423.312 1976.41,421.134 1971.74,423.312L1955.56,432.333Z" style="fill:white;"/>
                    <path id="path42" d="M1811.22,291.408L1811.22,269.01C1871.57,255.633 1928.19,273.676 1980.76,304.785L1965.21,327.806C1928.19,296.386 1865.04,280.831 1811.22,291.408Z" style="fill:white;"/>
                </g>
            </g>
        </g>
        <g transform="matrix(9.22052,0,0,9.22052,-8521.47,-3782.96)">
            <text x="996.7px" y="470.5px" style="font-family:'Montserrat-Bold', 'Montserrat';font-weight:700;font-size:18px;">Esporte Clube</text>
            <text x="996.7px" y="488.5px" style="font-family:'Montserrat-Bold', 'Montserrat';font-weight:700;font-size:18px;">Vitória</text>
        </g>
    </g>
</svg>
