<?xml version="1.0" encoding="UTF-8" standalone="no"?>
<!DOCTYPE svg PUBLIC "-//W3C//DTD SVG 1.1//EN" "http://www.w3.org/Graphics/SVG/1.1/DTD/svg11.dtd">
<svg width="100%" height="100%" viewBox="0 0 1920 1080" version="1.1" xmlns="http://www.w3.org/2000/svg" xmlns:xlink="http://www.w3.org/1999/xlink" xml:space="preserve" xmlns:serif="http://www.serif.com/" style="fill-rule:evenodd;clip-rule:evenodd;stroke-linejoin:round;stroke-miterlimit:2;">
    <rect x="0" y="0" width="1920" height="1080" style="fill:white;"/>
    <g transform="matrix(5.18269,0,0,5.18269,-2365.96,-1305.24)">
        <g transform="matrix(-0.0026982,0.999996,0.999996,0.0026982,522.188,322.018)">
            <path d="M35.446,-35.003C15.682,-34.971 -0.445,-18.765 0.172,1.38C0.749,20.214 16.379,35.433 35.446,35.414C54.884,35.396 70.799,19.359 70.604,-0.155C70.412,-19.286 54.552,-35.083 35.446,-35.003" style="fill:white;fill-rule:nonzero;"/>
        </g>
        <g transform="matrix(46.1879,0.668517,0.668517,-46.1879,522.331,356.039)">
            <path d="M-0.021,0.988C-0.05,0.954 -0.089,0.935 -0.132,0.925C-0.168,0.916 -0.204,0.909 -0.24,0.899C-0.284,0.887 -0.316,0.86 -0.327,0.814C-0.33,0.805 -0.331,0.796 -0.334,0.786C-0.341,0.79 -0.347,0.794 -0.353,0.797C-0.378,0.812 -0.405,0.82 -0.435,0.813C-0.46,0.808 -0.482,0.795 -0.503,0.781C-0.527,0.765 -0.551,0.748 -0.575,0.733C-0.615,0.707 -0.658,0.693 -0.706,0.699C-0.707,0.699 -0.709,0.699 -0.709,0.699C-0.71,0.698 -0.71,0.698 -0.71,0.698C-0.711,0.676 -0.711,0.655 -0.715,0.634C-0.72,0.6 -0.738,0.571 -0.756,0.543C-0.774,0.514 -0.793,0.486 -0.809,0.457C-0.832,0.415 -0.829,0.373 -0.803,0.333C-0.8,0.329 -0.797,0.324 -0.794,0.319C-0.796,0.318 -0.798,0.318 -0.799,0.317C-0.801,0.317 -0.803,0.316 -0.805,0.316C-0.855,0.306 -0.889,0.277 -0.902,0.228C-0.911,0.192 -0.918,0.155 -0.926,0.119C-0.936,0.076 -0.953,0.036 -0.987,0.005C-0.993,0 -0.998,-0.004 -1.002,-0.007C-0.985,-0.026 -0.968,-0.042 -0.954,-0.062C-0.934,-0.09 -0.926,-0.124 -0.918,-0.157C-0.91,-0.191 -0.903,-0.225 -0.892,-0.258C-0.88,-0.296 -0.853,-0.319 -0.815,-0.329C-0.807,-0.331 -0.799,-0.333 -0.791,-0.335C-0.794,-0.34 -0.796,-0.344 -0.799,-0.348C-0.816,-0.377 -0.823,-0.408 -0.813,-0.441C-0.805,-0.469 -0.789,-0.493 -0.773,-0.518C-0.758,-0.541 -0.742,-0.564 -0.728,-0.589C-0.706,-0.626 -0.696,-0.666 -0.702,-0.709C-0.703,-0.711 -0.702,-0.714 -0.702,-0.716C-0.656,-0.708 -0.613,-0.717 -0.573,-0.739C-0.551,-0.751 -0.531,-0.765 -0.509,-0.778C-0.488,-0.79 -0.467,-0.803 -0.445,-0.814C-0.411,-0.83 -0.378,-0.827 -0.345,-0.809C-0.337,-0.804 -0.329,-0.799 -0.32,-0.793C-0.319,-0.798 -0.317,-0.803 -0.316,-0.808C-0.306,-0.855 -0.278,-0.886 -0.232,-0.899C-0.201,-0.908 -0.169,-0.914 -0.138,-0.92C-0.097,-0.929 -0.058,-0.94 -0.024,-0.967C-0.012,-0.977 0,-0.988 0.013,-0.998C0.046,-0.951 0.099,-0.93 0.157,-0.918C0.184,-0.912 0.211,-0.906 0.238,-0.899C0.283,-0.887 0.316,-0.86 0.328,-0.813C0.33,-0.805 0.331,-0.797 0.333,-0.788C0.342,-0.794 0.35,-0.799 0.359,-0.803C0.392,-0.82 0.426,-0.822 0.46,-0.806C0.479,-0.797 0.497,-0.786 0.515,-0.775C0.539,-0.76 0.562,-0.743 0.587,-0.728C0.619,-0.71 0.653,-0.699 0.691,-0.701C0.699,-0.701 0.707,-0.702 0.715,-0.703C0.715,-0.699 0.715,-0.697 0.715,-0.695C0.711,-0.668 0.713,-0.641 0.72,-0.615C0.73,-0.581 0.749,-0.552 0.768,-0.523C0.783,-0.499 0.799,-0.475 0.812,-0.449C0.832,-0.41 0.828,-0.372 0.804,-0.335C0.801,-0.331 0.798,-0.326 0.795,-0.32C0.799,-0.319 0.802,-0.319 0.805,-0.318C0.821,-0.311 0.837,-0.307 0.852,-0.299C0.882,-0.281 0.896,-0.251 0.903,-0.219C0.911,-0.185 0.917,-0.15 0.925,-0.116C0.934,-0.073 0.951,-0.034 0.984,-0.004C0.99,0.001 0.996,0.006 1.002,0.011C0.994,0.018 0.986,0.024 0.979,0.03C0.946,0.061 0.93,0.1 0.92,0.142C0.912,0.177 0.905,0.213 0.895,0.248C0.882,0.294 0.851,0.322 0.803,0.331C0.798,0.332 0.793,0.334 0.788,0.335C0.792,0.342 0.795,0.347 0.798,0.352C0.808,0.369 0.814,0.386 0.816,0.405C0.819,0.438 0.806,0.467 0.789,0.494C0.774,0.518 0.758,0.541 0.742,0.565C0.716,0.606 0.697,0.649 0.701,0.699C0.701,0.705 0.702,0.711 0.703,0.717C0.673,0.712 0.645,0.713 0.617,0.722C0.581,0.732 0.551,0.753 0.519,0.772C0.497,0.786 0.475,0.801 0.451,0.812C0.412,0.832 0.372,0.829 0.335,0.806C0.33,0.802 0.324,0.799 0.318,0.795C0.316,0.801 0.315,0.805 0.314,0.81C0.304,0.856 0.278,0.887 0.232,0.9C0.2,0.91 0.166,0.915 0.133,0.922C0.093,0.931 0.055,0.942 0.023,0.968C0.011,0.978 -0.001,0.988 -0.013,0.998C-0.013,0.997 -0.017,0.993 -0.021,0.988Z" style="fill:url(#_Radial1);fill-rule:nonzero;"/>
        </g>
        <g transform="matrix(0,36.1468,36.1468,0,522.298,356)">
            <ellipse cx="0" cy="-0" rx="1" ry="1" style="fill:url(#_Radial2);"/>
        </g>
        <g transform="matrix(1,0,0,1,522.298,324.009)">
            <path d="M0,63.983C-17.641,63.983 -31.991,49.632 -31.991,31.992C-31.991,14.351 -17.641,0 0,0C17.641,0 31.991,14.351 31.991,31.992C31.991,49.632 17.641,63.983 0,63.983" style="fill:rgb(0,79,142);fill-rule:nonzero;"/>
        </g>
        <g transform="matrix(1,0,0,1,522.298,388.652)">
            <path d="M0,-65.303C-18.033,-65.303 -32.652,-50.684 -32.652,-32.651C-32.652,-14.618 -18.033,0 0,0C18.033,0 32.652,-14.618 32.652,-32.651C32.652,-50.684 18.033,-65.303 0,-65.303M0,-63.983C17.277,-63.983 31.332,-49.928 31.332,-32.651C31.332,-15.375 17.277,-1.319 0,-1.319C-17.277,-1.319 -31.332,-15.375 -31.332,-32.651C-31.332,-49.928 -17.277,-63.983 0,-63.983" style="fill:white;fill-rule:nonzero;"/>
        </g>
        <g transform="matrix(9.9039,-36.9618,-36.9618,-9.9039,504.745,375.443)">
            <path d="M0.94,0.065L0.905,0.071C0.638,0.114 0.278,0.173 0.245,0.179C0.201,0.186 0.16,0.132 0.155,0.127C0.103,0.033 0.029,-0.101 0,-0.157C0.005,-0.149 0.011,-0.141 0.018,-0.134C0.072,-0.078 0.162,-0.085 0.166,-0.086L0.899,-0.193L0.959,-0.135C0.964,-0.127 1.013,-0.059 0.997,0.001C0.988,0.033 0.977,0.045 0.94,0.065Z" style="fill:url(#_Linear3);fill-rule:nonzero;"/>
        </g>
        <g transform="matrix(1,0,0,1,511.82,363.119)">
            <path d="M0,-24.253C0,-24.253 1.313,-26.099 2.061,-26.537C3.836,-27.577 14.014,-29.038 14.014,-29.038C14.014,-29.038 17.109,-29.309 18.197,-27.5C19.285,-25.69 32.389,-0.699 32.389,-0.699L22.816,5.056L7.782,-22.748C7.782,-22.748 3.208,-27.987 0,-24.253" style="fill:white;fill-rule:nonzero;"/>
        </g>
        <g transform="matrix(32.5881,0,0,-32.5881,510.002,372.282)">
            <path d="M0.893,0.173L0.751,0.088L0.703,0.173L0.064,0.173L0.012,0.055C0.012,0.055 -0.014,-0.015 0.01,-0.073C0.016,-0.088 0.033,-0.115 0.043,-0.127C0.051,-0.138 0.064,-0.156 0.075,-0.163C0.086,-0.17 0.111,-0.173 0.141,-0.173L0.143,-0.173L1,-0.173L1,0.173L0.893,0.173Z" style="fill:url(#_Linear4);fill-rule:nonzero;"/>
        </g>
        <g transform="matrix(1,0,0,1,587.598,386.282)">
            <path d="M0,-5.743L0,-3.788L3.788,-3.788L3.788,-1.819L0,-1.819L0,1.969L-2.431,1.969L-2.431,-7.712L4.589,-7.712L4.589,-5.743L0,-5.743Z" style="fill:rgb(0,79,142);fill-rule:nonzero;"/>
        </g>
        <g transform="matrix(1,0,0,1,594.483,378.57)">
            <path d="M0,9.681L0,0L7.129,0L7.129,1.969L2.417,1.969L2.417,3.815L6.382,3.815L6.382,5.771L2.417,5.771L2.417,7.699L7.156,7.699L7.156,9.681L0,9.681Z" style="fill:rgb(0,79,142);fill-rule:nonzero;"/>
        </g>
        <g transform="matrix(1,0,0,1,608.076,386.269)">
            <path d="M0,-5.717L-1.425,-5.717L-1.425,0.013L0.068,0.013C0.951,0.013 1.711,-0.544 1.711,-1.535L1.724,-4.196C1.724,-5.147 0.965,-5.717 0,-5.717M0.218,1.982L-3.843,1.982L-3.843,-7.699L0.19,-7.699C2.349,-7.699 4.155,-6.545 4.155,-4.291L4.155,-1.562C4.155,0.841 2.254,1.982 0.218,1.982" style="fill:rgb(0,79,142);fill-rule:nonzero;"/>
        </g>
        <g transform="matrix(1,0,0,1,614.731,378.57)">
            <path d="M0,9.681L0,0L7.129,0L7.129,1.969L2.417,1.969L2.417,3.815L6.382,3.815L6.382,5.771L2.417,5.771L2.417,7.699L7.156,7.699L7.156,9.681L0,9.681Z" style="fill:rgb(0,79,142);fill-rule:nonzero;"/>
        </g>
        <g transform="matrix(1,0,0,1,628.405,386.35)">
            <path d="M0,-5.879L-1.507,-5.879L-1.507,-3.313L0,-3.313C0.869,-3.313 1.412,-3.815 1.412,-4.603C1.412,-5.499 0.814,-5.879 0,-5.879M1.52,1.901L-0.394,-1.52L-1.494,-1.52L-1.494,1.901L-3.924,1.901L-3.924,-7.78L0.312,-7.78C1.276,-7.78 2.023,-7.577 2.634,-7.128C3.38,-6.585 3.774,-5.689 3.774,-4.725C3.774,-3.544 3.204,-2.389 1.941,-1.874L4.168,1.901L1.52,1.901Z" style="fill:rgb(0,79,142);fill-rule:nonzero;"/>
        </g>
        <g transform="matrix(1,0,0,1,638.712,385.766)">
            <path d="M0,-4.725L-0.04,-4.725L-1.167,-1.222L1.114,-1.222L0,-4.725ZM2.295,2.485L1.711,0.679L-1.751,0.679L-2.349,2.485L-4.671,2.485L-1.236,-7.21L1.371,-7.21L4.766,2.485L2.295,2.485Z" style="fill:rgb(0,79,142);fill-rule:nonzero;"/>
        </g>
        <g transform="matrix(1,0,0,1,649.59,380.933)">
            <path d="M0,7.454L-0.109,7.915L0.082,7.915C0.733,7.929 1.412,8.106 1.412,8.839C1.412,9.64 0.435,9.98 -0.448,9.98C-0.842,9.98 -1.453,9.898 -1.941,9.748L-1.941,9.002C-1.48,9.124 -0.855,9.219 -0.53,9.219C-0.068,9.219 0.095,9.083 0.095,8.879C0.095,8.608 -0.258,8.595 -0.461,8.581L-1.181,8.554L-0.909,7.468C-2.879,7.332 -4.603,6.246 -4.603,3.992L-4.603,1.045C-4.603,-1.331 -2.675,-2.526 -0.543,-2.526C1.344,-2.526 3.395,-1.575 3.395,0.665L3.395,1.127L1.113,1.127L1.113,0.896C1.113,-0.109 0.258,-0.544 -0.489,-0.544C-1.344,-0.544 -2.172,-0.095 -2.172,1.005L-2.172,3.937C-2.172,4.928 -1.453,5.499 -0.461,5.499C0.285,5.499 1.113,5.078 1.113,4.059L1.113,3.829L3.395,3.829L3.395,4.304C3.395,6.341 1.724,7.305 0,7.454" style="fill:rgb(0,79,142);fill-rule:nonzero;"/>
        </g>
        <g transform="matrix(1,0,0,1,659.38,382.725)">
            <path d="M0,-1.684L-0.04,-1.684L-1.167,1.819L1.114,1.819L0,-1.684ZM1.331,-4.983C0.91,-4.983 0.502,-5.119 0.096,-5.228C-0.312,-5.35 -0.733,-5.486 -1.167,-5.486C-1.629,-5.486 -1.738,-5.268 -1.9,-4.78L-2.81,-4.983C-2.647,-6.07 -2.186,-6.993 -1.14,-6.993C-0.719,-6.993 -0.326,-6.884 0.068,-6.762C0.476,-6.64 0.896,-6.49 1.304,-6.49C1.725,-6.49 1.861,-6.776 2.023,-7.21L2.906,-6.979C2.77,-5.974 2.417,-4.983 1.331,-4.983M2.295,5.526L1.711,3.72L-1.751,3.72L-2.349,5.526L-4.671,5.526L-1.236,-4.169L1.371,-4.169L4.766,5.526L2.295,5.526Z" style="fill:rgb(0,79,142);fill-rule:nonzero;"/>
        </g>
        <g transform="matrix(1,0,0,1,669.756,386.432)">
            <path d="M0,-6.043C-0.869,-6.043 -1.67,-5.581 -1.67,-4.454L-1.67,-1.616C-1.67,-0.585 -0.95,-0 0.041,-0C0.883,-0 1.711,-0.503 1.711,-1.603L1.711,-4.468C1.711,-5.486 0.91,-6.043 0,-6.043M0.041,1.982C-2.132,1.982 -4.101,0.95 -4.101,-1.562L-4.101,-4.345C-4.101,-6.803 -2.105,-8.025 -0.027,-8.025C2.132,-8.025 4.141,-6.871 4.141,-4.373L4.141,-1.684C4.141,0.841 2.064,1.982 0.041,1.982" style="fill:rgb(0,79,142);fill-rule:nonzero;"/>
        </g>
        <g transform="matrix(1,0,0,1,685.224,382.589)">
            <path d="M0,1.643L-1.914,1.643L-1.914,3.761L0.014,3.761C0.788,3.761 1.236,3.313 1.236,2.661C1.236,2.023 0.801,1.643 0,1.643M-0.122,-2.145L-1.914,-2.145L-1.914,-0.163L-0.068,-0.163C0.693,-0.163 1.087,-0.597 1.087,-1.208C1.087,-1.928 0.502,-2.145 -0.122,-2.145M0.733,5.662L-4.331,5.662L-4.331,-4.019L0.598,-4.019C2.498,-4.019 3.49,-3.041 3.49,-1.561C3.49,-0.651 3.055,0.218 2.037,0.612L2.037,0.638C3.123,0.937 3.694,1.874 3.694,2.892C3.694,4.494 2.512,5.662 0.733,5.662" style="fill:rgb(0,79,142);fill-rule:nonzero;"/>
        </g>
        <g transform="matrix(1,0,0,1,695.245,385.766)">
            <path d="M0,-4.725L-0.04,-4.725L-1.167,-1.222L1.114,-1.222L0,-4.725ZM2.295,2.485L1.711,0.679L-1.751,0.679L-2.349,2.485L-4.671,2.485L-1.236,-7.21L1.371,-7.21L4.766,2.485L2.295,2.485Z" style="fill:rgb(0,79,142);fill-rule:nonzero;"/>
        </g>
        <g transform="matrix(1,0,0,1,0,171.541)">
            <rect x="702.037" y="207.029" width="2.431" height="9.681" style="fill:rgb(0,79,142);"/>
        </g>
        <g transform="matrix(1,0,0,1,711.161,385.766)">
            <path d="M0,-4.725L-0.04,-4.725L-1.167,-1.222L1.114,-1.222L0,-4.725ZM2.295,2.485L1.711,0.679L-1.751,0.679L-2.349,2.485L-4.671,2.485L-1.236,-7.21L1.371,-7.21L4.766,2.485L2.295,2.485Z" style="fill:rgb(0,79,142);fill-rule:nonzero;"/>
        </g>
        <g transform="matrix(1,0,0,1,724.008,378.57)">
            <path d="M0,9.681L-3.789,3.992L-3.816,3.992L-3.816,9.681L-6.056,9.681L-6.056,0L-3.707,0L-0.027,5.472L0,5.472L0,0L2.253,0L2.253,9.681L0,9.681Z" style="fill:rgb(0,79,142);fill-rule:nonzero;"/>
        </g>
        <g transform="matrix(1,0,0,1,732.944,385.766)">
            <path d="M0,-4.725L-0.04,-4.725L-1.167,-1.222L1.114,-1.222L0,-4.725ZM2.295,2.485L1.711,0.679L-1.751,0.679L-2.349,2.485L-4.671,2.485L-1.236,-7.21L1.371,-7.21L4.766,2.485L2.295,2.485Z" style="fill:rgb(0,79,142);fill-rule:nonzero;"/>
        </g>
        <g transform="matrix(1,0,0,1,748.058,386.269)">
            <path d="M0,-5.717L-1.425,-5.717L-1.425,0.013L0.068,0.013C0.951,0.013 1.711,-0.544 1.711,-1.535L1.724,-4.196C1.724,-5.147 0.965,-5.717 0,-5.717M0.218,1.982L-3.843,1.982L-3.843,-7.699L0.19,-7.699C2.349,-7.699 4.155,-6.545 4.155,-4.291L4.155,-1.562C4.155,0.841 2.254,1.982 0.218,1.982" style="fill:rgb(0,79,142);fill-rule:nonzero;"/>
        </g>
        <g transform="matrix(1,0,0,1,754.713,378.57)">
            <path d="M0,9.681L0,0L7.129,0L7.129,1.969L2.417,1.969L2.417,3.815L6.382,3.815L6.382,5.771L2.417,5.771L2.417,7.699L7.156,7.699L7.156,9.681L0,9.681Z" style="fill:rgb(0,79,142);fill-rule:nonzero;"/>
        </g>
        <g transform="matrix(1,0,0,1,772.026,378.57)">
            <path d="M0,9.844C-2.308,9.844 -3.557,8.907 -3.557,7.006L-3.557,6.395L-1.059,6.395L-1.059,6.924C-1.059,7.59 -0.584,7.862 -0.027,7.862C0.87,7.862 1.073,7.237 1.073,6.477L1.073,0L3.503,0L3.503,6.436C3.503,8.364 2.336,9.844 0,9.844" style="fill:rgb(0,79,142);fill-rule:nonzero;"/>
        </g>
        <g transform="matrix(1,0,0,1,782.185,378.57)">
            <path d="M0,9.844C-2.458,9.844 -4.006,8.69 -4.006,6.259L-4.006,0L-1.575,0L-1.575,6.083C-1.575,7.169 -1.005,7.848 0.068,7.848C1.086,7.848 1.683,7.237 1.683,6.096L1.683,0L4.06,0L4.06,6.15C4.06,8.567 2.267,9.844 0,9.844" style="fill:rgb(0,79,142);fill-rule:nonzero;"/>
        </g>
        <g transform="matrix(1,0,0,1,792.777,386.269)">
            <path d="M0,-5.717L-1.425,-5.717L-1.425,0.013L0.068,0.013C0.951,0.013 1.711,-0.544 1.711,-1.535L1.724,-4.196C1.724,-5.147 0.965,-5.717 0,-5.717M0.218,1.982L-3.843,1.982L-3.843,-7.699L0.19,-7.699C2.349,-7.699 4.155,-6.545 4.155,-4.291L4.155,-1.562C4.155,0.841 2.254,1.982 0.218,1.982" style="fill:rgb(0,79,142);fill-rule:nonzero;"/>
        </g>
        <g transform="matrix(1,0,0,1,803.288,383.594)">
            <path d="M0,-3.205C-0.869,-3.205 -1.67,-2.743 -1.67,-1.616L-1.67,1.222C-1.67,2.253 -0.95,2.838 0.041,2.838C0.883,2.838 1.711,2.335 1.711,1.235L1.711,-1.63C1.711,-2.648 0.91,-3.205 0,-3.205M0.611,-5.757L0.041,-6.979L-0.638,-5.757L-2.294,-5.757L-0.814,-8.025L0.924,-8.025L2.335,-5.757L0.611,-5.757ZM0.041,4.82C-2.132,4.82 -4.101,3.788 -4.101,1.276L-4.101,-1.507C-4.101,-3.965 -2.105,-5.187 -0.027,-5.187C2.132,-5.187 4.141,-4.033 4.141,-1.535L4.141,1.154C4.141,3.679 2.064,4.82 0.041,4.82" style="fill:rgb(0,79,142);fill-rule:nonzero;"/>
        </g>
        <g transform="matrix(16.6971,0,0,-16.6971,710.268,355.73)">
            <path d="M0.276,0.272C0.23,0.272 0.186,0.268 0.143,0.261L-0,-0.272C0.059,-0.214 0.139,-0.173 0.246,-0.173L1,-0.173L0.878,0.272L0.276,0.272Z" style="fill:url(#_Linear5);fill-rule:nonzero;"/>
        </g>
        <g transform="matrix(19.8118,0,0,-19.8118,719.732,345.757)">
            <path d="M0,0.978C0.019,0.943 0.028,0.916 0.03,0.912L0.581,-1.14L1,-1.14L0.482,0.921C0.48,0.93 0.426,1.14 0.25,1.14C0.123,1.14 0.043,1.049 0,0.978Z" style="fill:url(#_Linear6);fill-rule:nonzero;"/>
        </g>
        <g transform="matrix(0,-45.1784,-45.1784,0,709.43,368.346)">
            <path d="M1,-0.25L1,-0.079C1,-0.002 0.908,0.022 0.904,0.023L0,0.25L0,0.066L0.9,-0.176C0.904,-0.177 0.966,-0.198 1,-0.25Z" style="fill:url(#_Linear7);fill-rule:nonzero;"/>
        </g>
        <g transform="matrix(23.5047,0,0,-23.5047,671.422,357.337)">
            <path d="M0.38,0.387L0,0.387L0,0.295L0.368,0.292C0.374,0.292 0.381,0.292 0.387,0.291C0.412,0.29 0.437,0.286 0.46,0.279C0.491,0.271 0.518,0.258 0.541,0.241C0.565,0.223 0.584,0.201 0.598,0.175C0.613,0.149 0.621,0.117 0.621,0.08C0.621,0.005 0.598,-0.053 0.553,-0.092C0.509,-0.132 0.443,-0.152 0.357,-0.152L0,-0.152L0,-0.468L0.345,-0.468C0.429,-0.468 0.512,-0.461 0.592,-0.445C0.671,-0.43 0.741,-0.402 0.802,-0.364C0.862,-0.327 0.91,-0.275 0.946,-0.211C0.982,-0.148 1,-0.067 1,0.03C1,0.116 0.98,0.195 0.94,0.263C0.911,0.314 0.846,0.402 0.731,0.468C0.642,0.421 0.528,0.387 0.38,0.387Z" style="fill:url(#_Linear8);fill-rule:nonzero;"/>
        </g>
        <g transform="matrix(23.5047,0,0,-23.5047,671.422,335.201)">
            <path d="M0.345,0.512L0.322,0.511C0.247,0.505 0.013,0.463 0.001,0.196L0.357,0.196C0.443,0.196 0.509,0.175 0.553,0.136C0.598,0.097 0.621,0.039 0.621,-0.037C0.621,-0.073 0.613,-0.105 0.598,-0.132C0.584,-0.158 0.565,-0.18 0.541,-0.197C0.518,-0.214 0.491,-0.227 0.46,-0.236C0.437,-0.242 0.412,-0.246 0.387,-0.248C0.381,-0.248 0.374,-0.248 0.367,-0.248L0,-0.252L0,-0.512L0.38,-0.512C0.732,-0.512 0.889,-0.308 0.94,-0.22C0.98,-0.151 1,-0.072 1,0.013C1,0.11 0.982,0.191 0.946,0.255C0.91,0.319 0.862,0.37 0.802,0.408C0.741,0.446 0.671,0.473 0.592,0.489C0.512,0.504 0.429,0.512 0.345,0.512Z" style="fill:url(#_Linear9);fill-rule:nonzero;"/>
        </g>
        <g transform="matrix(0,-45.1784,-45.1784,0,667.793,368.346)">
            <path d="M1,-0.055C1,-0.047 0.995,0.152 0.821,0.152L0,0.152L0,-0.044L0.824,-0.044C0.927,-0.044 0.976,-0.099 1,-0.152L1,-0.055Z" style="fill:url(#_Linear10);fill-rule:nonzero;"/>
        </g>
        <g transform="matrix(20.8405,0,0,-20.8405,633.712,364.571)">
            <rect x="0" y="-0.181" width="1" height="0.362" style="fill:url(#_Linear11);"/>
        </g>
        <g transform="matrix(0,16.9183,16.9183,0,642.171,336.325)">
            <rect x="0.279" y="-0.5" width="0.439" height="1" style="fill:url(#_Linear12);"/>
        </g>
        <g transform="matrix(-10.6219,17.9165,17.9165,10.6219,649.448,317.985)">
            <path d="M0.401,-0.188C0.409,-0.202 0.597,-0.509 0.911,-0.338L0.401,0.523L0.089,0.338L0.401,-0.188Z" style="fill:url(#_Linear13);fill-rule:nonzero;"/>
        </g>
        <g transform="matrix(0,-45.1784,-45.1784,0,630.083,368.346)">
            <path d="M1,-0.152L1,-0.055C1,-0.047 0.995,0.152 0.821,0.152L0,0.152L0,-0.044L0.824,-0.044C0.927,-0.044 0.976,-0.099 1,-0.152Z" style="fill:url(#_Linear14);fill-rule:nonzero;"/>
        </g>
        <g transform="matrix(0,16.9187,16.9187,0,604.461,336.325)">
            <rect x="0.279" y="-0.5" width="0.439" height="1" style="fill:url(#_Linear15);"/>
        </g>
        <g transform="matrix(-10.6219,17.9165,17.9165,10.6219,611.738,317.985)">
            <path d="M0.401,-0.188C0.409,-0.202 0.597,-0.509 0.911,-0.338L0.401,0.523L0.089,0.338L0.401,-0.188Z" style="fill:url(#_Linear16);fill-rule:nonzero;"/>
        </g>
        <g transform="matrix(0,-45.1784,-45.1784,0,592.373,368.346)">
            <path d="M1,-0.055C1,-0.047 0.994,0.152 0.821,0.152L0,0.152L0,-0.044L0.824,-0.044C0.927,-0.044 0.976,-0.099 1,-0.152L1,-0.055Z" style="fill:url(#_Linear17);fill-rule:nonzero;"/>
        </g>
        <g transform="matrix(12.2026,0,0,-12.2026,743.414,362.987)">
            <path d="M0,0.022C0.159,-0.205 0.293,-0.306 0.347,-0.34L0.348,-0.339C0.426,-0.377 0.5,-0.396 0.568,-0.396C0.787,-0.396 0.923,-0.196 1,0.029C0.708,0.098 0.558,0.303 0.504,0.396L0,0.022Z" style="fill:url(#_Linear18);fill-rule:nonzero;"/>
        </g>
        <g transform="matrix(14.9572,0,0,-14.9572,752.139,346.329)">
            <path d="M0.408,1.549L0.408,-0.704C0.408,-0.945 0.306,-1.425 -0,-1.495C0.172,-1.531 0.375,-1.512 0.559,-1.443C0.662,-1.404 0.999,-1.233 0.999,-0.691L1,1.549L0.408,1.549Z" style="fill:url(#_Linear19);fill-rule:nonzero;"/>
        </g>
        <g transform="matrix(12.6784,0,0,-12.6784,783.966,363.923)">
            <path d="M-0,0.349L-0,0.277C-0,-0.342 0.411,-0.349 0.428,-0.349L0.572,-0.349C0.589,-0.349 1,-0.339 1,0.277L1,0.349L-0,0.349Z" style="fill:url(#_Linear20);fill-rule:nonzero;"/>
        </g>
        <g transform="matrix(0,45.1784,45.1784,0,779.626,323.168)">
            <path d="M0,-0.136L0.821,-0.136C0.995,-0.136 1,0.063 1,0.071L1,0.136C0.976,0.099 0.927,0.06 0.824,0.06L0,0.06L0,-0.136Z" style="fill:url(#_Linear21);fill-rule:nonzero;"/>
        </g>
        <g transform="matrix(0,45.1784,45.1784,0,800.983,323.168)">
            <path d="M0,-0.06L0.824,-0.06C0.927,-0.06 0.976,-0.099 1,-0.136L1,-0.071C1,-0.062 0.994,0.136 0.821,0.136L0,0.136L0,-0.06Z" style="fill:url(#_Linear22);fill-rule:nonzero;"/>
        </g>
    </g>
    <defs>
        <radialGradient id="_Radial1" cx="0" cy="0" r="1" gradientUnits="userSpaceOnUse" gradientTransform="matrix(1,-1.73472e-18,-1.73472e-18,-1,0,-1.83155e-06)"><stop offset="0" style="stop-color:rgb(0,145,211);stop-opacity:1"/><stop offset="0.61" style="stop-color:rgb(0,145,211);stop-opacity:1"/><stop offset="1" style="stop-color:rgb(0,99,159);stop-opacity:1"/></radialGradient>
        <radialGradient id="_Radial2" cx="0" cy="0" r="1" gradientUnits="userSpaceOnUse" gradientTransform="matrix(0,1,1,0,8.63146e-07,-8.63146e-07)"><stop offset="0" style="stop-color:rgb(237,28,36);stop-opacity:1"/><stop offset="0.39" style="stop-color:rgb(237,28,36);stop-opacity:1"/><stop offset="0.89" style="stop-color:rgb(190,20,26);stop-opacity:1"/><stop offset="1" style="stop-color:rgb(112,0,0);stop-opacity:1"/></radialGradient>
        <linearGradient id="_Linear3" x1="0" y1="0" x2="1" y2="0" gradientUnits="userSpaceOnUse" gradientTransform="matrix(1,-5.55112e-17,-5.55112e-17,-1,0,-0.00661927)"><stop offset="0" style="stop-color:white;stop-opacity:1"/><stop offset="0.51" style="stop-color:white;stop-opacity:1"/><stop offset="0.84" style="stop-color:rgb(171,168,172);stop-opacity:1"/><stop offset="0.86" style="stop-color:rgb(157,154,158);stop-opacity:1"/><stop offset="1" style="stop-color:rgb(157,154,158);stop-opacity:1"/></linearGradient>
        <linearGradient id="_Linear4" x1="0" y1="0" x2="1" y2="0" gradientUnits="userSpaceOnUse" gradientTransform="matrix(1,0,0,-1,0,1.93936e-06)"><stop offset="0" style="stop-color:rgb(157,154,158);stop-opacity:1"/><stop offset="0.1" style="stop-color:rgb(157,154,158);stop-opacity:1"/><stop offset="0.49" style="stop-color:white;stop-opacity:1"/><stop offset="1" style="stop-color:white;stop-opacity:1"/></linearGradient>
        <linearGradient id="_Linear5" x1="0" y1="0" x2="1" y2="0" gradientUnits="userSpaceOnUse" gradientTransform="matrix(1,0,0,-1,0,2.41239e-05)"><stop offset="0" style="stop-color:rgb(112,0,0);stop-opacity:1"/><stop offset="1" style="stop-color:rgb(237,28,36);stop-opacity:1"/><stop offset="1" style="stop-color:rgb(237,28,36);stop-opacity:1"/></linearGradient>
        <linearGradient id="_Linear6" x1="0" y1="0" x2="1" y2="0" gradientUnits="userSpaceOnUse" gradientTransform="matrix(1,0,0,-1,0,1.64346e-05)"><stop offset="0" style="stop-color:rgb(112,0,0);stop-opacity:1"/><stop offset="1" style="stop-color:rgb(237,28,36);stop-opacity:1"/><stop offset="1" style="stop-color:rgb(237,28,36);stop-opacity:1"/></linearGradient>
        <linearGradient id="_Linear7" x1="0" y1="0" x2="1" y2="0" gradientUnits="userSpaceOnUse" gradientTransform="matrix(1,0,0,-1,0,-2.0771e-05)"><stop offset="0" style="stop-color:rgb(112,0,0);stop-opacity:1"/><stop offset="1" style="stop-color:rgb(237,28,36);stop-opacity:1"/><stop offset="1" style="stop-color:rgb(237,28,36);stop-opacity:1"/></linearGradient>
        <linearGradient id="_Linear8" x1="0" y1="0" x2="1" y2="0" gradientUnits="userSpaceOnUse" gradientTransform="matrix(1,0,0,-1,0,-1.61585e-05)"><stop offset="0" style="stop-color:rgb(112,0,0);stop-opacity:1"/><stop offset="1" style="stop-color:rgb(237,28,36);stop-opacity:1"/><stop offset="1" style="stop-color:rgb(237,28,36);stop-opacity:1"/></linearGradient>
        <linearGradient id="_Linear9" x1="0" y1="0" x2="1" y2="0" gradientUnits="userSpaceOnUse" gradientTransform="matrix(1,0,0,-1,0,1.38355e-05)"><stop offset="0" style="stop-color:rgb(112,0,0);stop-opacity:1"/><stop offset="1" style="stop-color:rgb(237,28,36);stop-opacity:1"/><stop offset="1" style="stop-color:rgb(237,28,36);stop-opacity:1"/></linearGradient>
        <linearGradient id="_Linear10" x1="0" y1="0" x2="1" y2="0" gradientUnits="userSpaceOnUse" gradientTransform="matrix(1,0,0,-1,0,-3.50167e-06)"><stop offset="0" style="stop-color:rgb(112,0,0);stop-opacity:1"/><stop offset="1" style="stop-color:rgb(237,28,36);stop-opacity:1"/><stop offset="1" style="stop-color:rgb(237,28,36);stop-opacity:1"/></linearGradient>
        <linearGradient id="_Linear11" x1="0" y1="0" x2="1" y2="0" gradientUnits="userSpaceOnUse" gradientTransform="matrix(1,0,0,-1,0,1.60745e-05)"><stop offset="0" style="stop-color:rgb(112,0,0);stop-opacity:1"/><stop offset="1" style="stop-color:rgb(237,28,36);stop-opacity:1"/><stop offset="1" style="stop-color:rgb(237,28,36);stop-opacity:1"/></linearGradient>
        <linearGradient id="_Linear12" x1="0" y1="0" x2="1" y2="0" gradientUnits="userSpaceOnUse" gradientTransform="matrix(0,1,1,0,0.500036,-0.500036)"><stop offset="0" style="stop-color:rgb(112,0,0);stop-opacity:1"/><stop offset="1" style="stop-color:rgb(237,28,36);stop-opacity:1"/><stop offset="1" style="stop-color:rgb(237,28,36);stop-opacity:1"/></linearGradient>
        <linearGradient id="_Linear13" x1="0" y1="0" x2="1" y2="0" gradientUnits="userSpaceOnUse" gradientTransform="matrix(-0.509969,0.860193,0.860193,0.509969,0.754946,-0.430074)"><stop offset="0" style="stop-color:rgb(112,0,0);stop-opacity:1"/><stop offset="1" style="stop-color:rgb(237,28,36);stop-opacity:1"/><stop offset="1" style="stop-color:rgb(237,28,36);stop-opacity:1"/></linearGradient>
        <linearGradient id="_Linear14" x1="0" y1="0" x2="1" y2="0" gradientUnits="userSpaceOnUse" gradientTransform="matrix(1,0,0,-1,0,-1.92614e-05)"><stop offset="0" style="stop-color:rgb(112,0,0);stop-opacity:1"/><stop offset="1" style="stop-color:rgb(237,28,36);stop-opacity:1"/><stop offset="1" style="stop-color:rgb(237,28,36);stop-opacity:1"/></linearGradient>
        <linearGradient id="_Linear15" x1="0" y1="0" x2="1" y2="0" gradientUnits="userSpaceOnUse" gradientTransform="matrix(0,1,1,0,0.500028,-0.500028)"><stop offset="0" style="stop-color:rgb(112,0,0);stop-opacity:1"/><stop offset="1" style="stop-color:rgb(237,28,36);stop-opacity:1"/><stop offset="1" style="stop-color:rgb(237,28,36);stop-opacity:1"/></linearGradient>
        <linearGradient id="_Linear16" x1="0" y1="0" x2="1" y2="0" gradientUnits="userSpaceOnUse" gradientTransform="matrix(-0.509969,0.860193,0.860193,0.509969,0.754949,-0.430076)"><stop offset="0" style="stop-color:rgb(112,0,0);stop-opacity:1"/><stop offset="1" style="stop-color:rgb(237,28,36);stop-opacity:1"/><stop offset="1" style="stop-color:rgb(237,28,36);stop-opacity:1"/></linearGradient>
        <linearGradient id="_Linear17" x1="0" y1="0" x2="1" y2="0" gradientUnits="userSpaceOnUse" gradientTransform="matrix(1,0,0,-1,0,-6.95908e-06)"><stop offset="0" style="stop-color:rgb(112,0,0);stop-opacity:1"/><stop offset="1" style="stop-color:rgb(237,28,36);stop-opacity:1"/><stop offset="1" style="stop-color:rgb(237,28,36);stop-opacity:1"/></linearGradient>
        <linearGradient id="_Linear18" x1="0" y1="0" x2="1" y2="0" gradientUnits="userSpaceOnUse" gradientTransform="matrix(1,0,0,-1,0,-7.57216e-05)"><stop offset="0" style="stop-color:rgb(112,0,0);stop-opacity:1"/><stop offset="1" style="stop-color:rgb(237,28,36);stop-opacity:1"/><stop offset="1" style="stop-color:rgb(237,28,36);stop-opacity:1"/></linearGradient>
        <linearGradient id="_Linear19" x1="0" y1="0" x2="1" y2="0" gradientUnits="userSpaceOnUse" gradientTransform="matrix(1,0,0,-1,0,0.017888)"><stop offset="0" style="stop-color:rgb(112,0,0);stop-opacity:1"/><stop offset="1" style="stop-color:rgb(237,28,36);stop-opacity:1"/><stop offset="1" style="stop-color:rgb(237,28,36);stop-opacity:1"/></linearGradient>
        <linearGradient id="_Linear20" x1="0" y1="0" x2="1" y2="0" gradientUnits="userSpaceOnUse" gradientTransform="matrix(1,0,0,-1,0,3.58247e-05)"><stop offset="0" style="stop-color:rgb(112,0,0);stop-opacity:1"/><stop offset="1" style="stop-color:rgb(237,28,36);stop-opacity:1"/><stop offset="1" style="stop-color:rgb(237,28,36);stop-opacity:1"/></linearGradient>
        <linearGradient id="_Linear21" x1="0" y1="0" x2="1" y2="0" gradientUnits="userSpaceOnUse" gradientTransform="matrix(1,0,0,-1,0,2.05762e-05)"><stop offset="0" style="stop-color:rgb(237,28,36);stop-opacity:1"/><stop offset="0" style="stop-color:rgb(237,28,36);stop-opacity:1"/><stop offset="0.91" style="stop-color:rgb(143,4,6);stop-opacity:1"/><stop offset="1" style="stop-color:rgb(112,0,0);stop-opacity:1"/></linearGradient>
        <linearGradient id="_Linear22" x1="0" y1="0" x2="1" y2="0" gradientUnits="userSpaceOnUse" gradientTransform="matrix(1,0,0,-1,0,2.2524e-05)"><stop offset="0" style="stop-color:rgb(237,28,36);stop-opacity:1"/><stop offset="0" style="stop-color:rgb(237,28,36);stop-opacity:1"/><stop offset="0.91" style="stop-color:rgb(143,4,6);stop-opacity:1"/><stop offset="1" style="stop-color:rgb(112,0,0);stop-opacity:1"/></linearGradient>
    </defs>
</svg>
