<?xml version="1.0" encoding="UTF-8" standalone="no"?>
<!DOCTYPE svg PUBLIC "-//W3C//DTD SVG 1.1//EN" "http://www.w3.org/Graphics/SVG/1.1/DTD/svg11.dtd">
<svg width="100%" height="100%" viewBox="0 0 1920 430" version="1.1" xmlns="http://www.w3.org/2000/svg" xmlns:xlink="http://www.w3.org/1999/xlink" xml:space="preserve" xmlns:serif="http://www.serif.com/" style="fill-rule:evenodd;clip-rule:evenodd;stroke-linejoin:round;stroke-miterlimit:2;">
    <g>
        <g transform="matrix(3.38959,0,0,3.38959,-1090.78,-2165.45)">
            <rect x="486.722" y="674.621" width="2.34" height="20.97" style="fill:rgb(229,92,38);fill-rule:nonzero;"/>
            <path d="M502.892,674.621L505.142,674.621L516.692,691.601L516.692,674.621L519.032,674.621L519.032,695.591L516.782,695.591L505.232,678.581L505.232,695.591L502.892,695.591L502.892,674.621Z" style="fill:rgb(229,92,38);fill-rule:nonzero;"/>
            <path d="M538.412,696.041C537.252,696.041 536.112,695.941 534.992,695.741C533.872,695.541 532.952,695.271 532.232,694.931L532.232,692.711C534.112,693.531 536.132,693.941 538.292,693.941C540.092,693.941 541.417,693.651 542.267,693.071C543.117,692.491 543.542,691.621 543.542,690.461C543.542,689.641 543.367,688.991 543.017,688.511C542.667,688.031 542.162,687.626 541.502,687.296C540.842,686.966 539.702,686.471 538.082,685.811C536.102,685.011 534.667,684.136 533.777,683.186C532.887,682.236 532.442,681.031 532.442,679.571C532.442,678.511 532.727,677.571 533.297,676.751C533.867,675.931 534.672,675.296 535.712,674.846C536.752,674.396 537.952,674.171 539.312,674.171C540.412,674.171 541.407,674.256 542.297,674.426C543.187,674.596 544.062,674.871 544.922,675.251L544.922,677.381C543.242,676.641 541.482,676.271 539.642,676.271C538.042,676.271 536.832,676.561 536.012,677.141C535.192,677.721 534.782,678.531 534.782,679.571C534.782,680.271 534.952,680.871 535.292,681.371C535.632,681.871 536.167,682.331 536.897,682.751C537.627,683.171 538.632,683.631 539.912,684.131C541.352,684.691 542.482,685.216 543.302,685.706C544.122,686.196 544.757,686.816 545.207,687.566C545.657,688.316 545.882,689.281 545.882,690.461C545.882,692.241 545.252,693.616 543.992,694.586C542.732,695.556 540.872,696.041 538.412,696.041Z" style="fill:rgb(229,92,38);fill-rule:nonzero;"/>
            <path d="M563.852,676.601L557.132,676.601L557.132,674.621L572.912,674.621L572.912,676.601L566.192,676.601L566.192,695.591L563.852,695.591L563.852,676.601Z" style="fill:rgb(229,92,38);fill-rule:nonzero;"/>
            <rect x="585.542" y="674.621" width="2.34" height="20.97" style="fill:rgb(229,92,38);fill-rule:nonzero;"/>
            <path d="M607.232,676.601L600.512,676.601L600.512,674.621L616.292,674.621L616.292,676.601L609.572,676.601L609.572,695.591L607.232,695.591L607.232,676.601Z" style="fill:rgb(229,92,38);fill-rule:nonzero;"/>
            <path d="M637.112,696.041C634.352,696.041 632.267,695.341 630.857,693.941C629.447,692.541 628.742,690.591 628.742,688.091L628.742,674.621L631.082,674.621L631.082,688.271C631.082,690.171 631.612,691.591 632.672,692.531C633.732,693.471 635.212,693.941 637.112,693.941C639.012,693.941 640.492,693.471 641.552,692.531C642.612,691.591 643.142,690.171 643.142,688.271L643.142,674.621L645.482,674.621L645.482,688.091C645.482,690.591 644.777,692.541 643.367,693.941C641.957,695.341 639.872,696.041 637.112,696.041Z" style="fill:rgb(229,92,38);fill-rule:nonzero;"/>
            <path d="M664.652,676.601L657.932,676.601L657.932,674.621L673.712,674.621L673.712,676.601L666.992,676.601L666.992,695.591L664.652,695.591L664.652,676.601Z" style="fill:rgb(229,92,38);fill-rule:nonzero;"/>
            <path d="M695.042,696.041C692.982,696.041 691.117,695.586 689.447,694.676C687.777,693.766 686.462,692.481 685.502,690.821C684.542,689.161 684.062,687.261 684.062,685.121C684.062,682.981 684.542,681.081 685.502,679.421C686.462,677.761 687.772,676.471 689.432,675.551C691.092,674.631 692.962,674.171 695.042,674.171C697.122,674.171 698.992,674.631 700.652,675.551C702.312,676.471 703.622,677.761 704.582,679.421C705.542,681.081 706.022,682.981 706.022,685.121C706.022,687.261 705.542,689.161 704.582,690.821C703.622,692.481 702.307,693.766 700.637,694.676C698.967,695.586 697.102,696.041 695.042,696.041ZM695.042,693.941C696.642,693.941 698.102,693.581 699.422,692.861C700.742,692.141 701.782,691.116 702.542,689.786C703.302,688.456 703.682,686.901 703.682,685.121C703.682,683.361 703.307,681.816 702.557,680.486C701.807,679.156 700.777,678.126 699.467,677.396C698.157,676.666 696.702,676.301 695.102,676.301C693.482,676.301 692.012,676.661 690.692,677.381C689.372,678.101 688.327,679.131 687.557,680.471C686.787,681.811 686.402,683.361 686.402,685.121C686.402,686.901 686.782,688.456 687.542,689.786C688.302,691.116 689.342,692.141 690.662,692.861C691.982,693.581 693.442,693.941 695.042,693.941Z" style="fill:rgb(229,92,38);fill-rule:nonzero;"/>
        </g>
        <g transform="matrix(4.90537,0,0,4.90537,-1824.72,-3074.76)">
            <path d="M485.942,674.621L491.042,674.621L497.102,687.611L503.192,674.621L508.262,674.621L508.262,695.591L503.312,695.591L503.312,685.061L498.302,695.591L495.902,695.591L490.922,685.061L490.922,695.591L485.942,695.591L485.942,674.621Z" style="fill:rgb(229,92,38);fill-rule:nonzero;"/>
            <path d="M518.012,674.621L523.232,674.621L531.602,695.591L526.172,695.591L524.492,691.271L516.752,691.271L515.072,695.591L509.612,695.591L518.012,674.621ZM523.172,687.191L520.622,680.141L518.042,687.191L523.172,687.191Z" style="fill:rgb(229,92,38);fill-rule:nonzero;"/>
            <rect x="533.702" y="674.621" width="5.31" height="20.97" style="fill:rgb(229,92,38);fill-rule:nonzero;"/>
            <path d="M552.542,696.041C550.262,696.041 548.257,695.601 546.527,694.721C544.797,693.841 543.462,692.576 542.522,690.926C541.582,689.276 541.112,687.341 541.112,685.121C541.112,682.901 541.582,680.966 542.522,679.316C543.462,677.666 544.797,676.396 546.527,675.506C548.257,674.616 550.262,674.171 552.542,674.171C554.042,674.171 555.382,674.321 556.562,674.621C557.742,674.921 558.832,675.391 559.832,676.031L559.832,681.071C558.952,680.371 557.957,679.861 556.847,679.541C555.737,679.221 554.462,679.061 553.022,679.061C550.962,679.061 549.372,679.596 548.252,680.666C547.132,681.736 546.572,683.221 546.572,685.121C546.572,687.021 547.137,688.511 548.267,689.591C549.397,690.671 550.982,691.211 553.022,691.211C554.462,691.211 555.752,691.041 556.892,690.701C558.032,690.361 559.092,689.821 560.072,689.081L560.072,694.091C558.172,695.391 555.662,696.041 552.542,696.041Z" style="fill:rgb(229,92,38);fill-rule:nonzero;"/>
            <path d="M572.102,696.041C569.982,696.041 568.067,695.581 566.357,694.661C564.647,693.741 563.297,692.456 562.307,690.806C561.317,689.156 560.822,687.261 560.822,685.121C560.822,682.981 561.317,681.081 562.307,679.421C563.297,677.761 564.647,676.471 566.357,675.551C568.067,674.631 569.982,674.171 572.102,674.171C574.202,674.171 576.107,674.631 577.817,675.551C579.527,676.471 580.872,677.761 581.852,679.421C582.832,681.081 583.322,682.981 583.322,685.121C583.322,687.261 582.832,689.156 581.852,690.806C580.872,692.456 579.527,693.741 577.817,694.661C576.107,695.581 574.202,696.041 572.102,696.041ZM572.102,691.061C573.162,691.061 574.132,690.821 575.012,690.341C575.892,689.861 576.592,689.171 577.112,688.271C577.632,687.371 577.892,686.321 577.892,685.121C577.892,683.921 577.637,682.876 577.127,681.986C576.617,681.096 575.922,680.406 575.042,679.916C574.162,679.426 573.182,679.181 572.102,679.181C571.002,679.181 570.012,679.426 569.132,679.916C568.252,680.406 567.557,681.096 567.047,681.986C566.537,682.876 566.282,683.921 566.282,685.121C566.282,686.321 566.537,687.371 567.047,688.271C567.557,689.171 568.257,689.861 569.147,690.341C570.037,690.821 571.022,691.061 572.102,691.061Z" style="fill:rgb(229,92,38);fill-rule:nonzero;"/>
            <path d="M585.422,674.621L590.672,674.621L598.382,687.101L598.382,674.621L603.692,674.621L603.692,695.591L598.472,695.591L590.732,683.081L590.732,695.591L585.422,695.591L585.422,674.621Z" style="fill:rgb(229,92,38);fill-rule:nonzero;"/>
            <path d="M616.592,674.621L631.472,674.621L631.472,679.091L621.902,679.091L621.902,683.021L628.892,683.021L628.892,687.191L621.902,687.191L621.902,695.591L616.592,695.591L616.592,674.621Z" style="fill:rgb(229,92,38);fill-rule:nonzero;"/>
            <path d="M632.972,674.621L642.392,674.621C644.852,674.621 646.777,675.241 648.167,676.481C649.557,677.721 650.252,679.501 650.252,681.821C650.252,683.381 649.912,684.711 649.232,685.811C648.552,686.911 647.592,687.731 646.352,688.271L650.072,695.591L644.612,695.591L641.282,689.021L638.282,689.021L638.282,695.591L632.972,695.591L632.972,674.621ZM641.462,684.551C642.522,684.551 643.342,684.346 643.922,683.936C644.502,683.526 644.792,682.821 644.792,681.821C644.792,680.781 644.507,680.066 643.937,679.676C643.367,679.286 642.542,679.091 641.462,679.091L638.282,679.091L638.282,684.551L641.462,684.551Z" style="fill:rgb(229,92,38);fill-rule:nonzero;"/>
            <path d="M658.802,674.621L664.022,674.621L672.392,695.591L666.962,695.591L665.282,691.271L657.542,691.271L655.862,695.591L650.402,695.591L658.802,674.621ZM663.962,687.191L661.412,680.141L658.832,687.191L663.962,687.191Z" style="fill:rgb(229,92,38);fill-rule:nonzero;"/>
            <path d="M674.492,674.621L679.742,674.621L687.452,687.101L687.452,674.621L692.762,674.621L692.762,695.591L687.542,695.591L679.802,683.081L679.802,695.591L674.492,695.591L674.492,674.621Z" style="fill:rgb(229,92,38);fill-rule:nonzero;"/>
            <path d="M713.822,694.091C712.502,694.991 710.912,695.581 709.052,695.861L708.602,696.971C709.482,697.111 710.147,697.406 710.597,697.856C711.047,698.306 711.272,698.961 711.272,699.821C711.272,700.881 710.842,701.681 709.982,702.221C709.122,702.761 707.952,703.031 706.472,703.031C705.792,703.031 705.137,702.991 704.507,702.911C703.877,702.831 703.402,702.731 703.082,702.611L703.082,700.061C703.602,700.341 704.212,700.481 704.912,700.481C705.392,700.481 705.762,700.391 706.022,700.211C706.282,700.031 706.412,699.781 706.412,699.461C706.412,699.081 706.187,698.786 705.737,698.576C705.287,698.366 704.532,698.261 703.472,698.261L704.372,695.921C702.432,695.681 700.747,695.091 699.317,694.151C697.887,693.211 696.787,691.971 696.017,690.431C695.247,688.891 694.862,687.121 694.862,685.121C694.862,682.901 695.332,680.966 696.272,679.316C697.212,677.666 698.547,676.396 700.277,675.506C702.007,674.616 704.012,674.171 706.292,674.171C707.792,674.171 709.132,674.321 710.312,674.621C711.492,674.921 712.582,675.391 713.582,676.031L713.582,681.071C712.702,680.371 711.707,679.861 710.597,679.541C709.487,679.221 708.212,679.061 706.772,679.061C704.712,679.061 703.122,679.596 702.002,680.666C700.882,681.736 700.322,683.221 700.322,685.121C700.322,687.021 700.887,688.511 702.017,689.591C703.147,690.671 704.732,691.211 706.772,691.211C708.212,691.211 709.502,691.041 710.642,690.701C711.782,690.361 712.842,689.821 713.822,689.081L713.822,694.091Z" style="fill:rgb(229,92,38);fill-rule:nonzero;"/>
            <path d="M722.972,674.621L728.192,674.621L736.562,695.591L731.132,695.591L729.452,691.271L721.712,691.271L720.032,695.591L714.572,695.591L722.972,674.621ZM728.132,687.191L725.582,680.141L723.002,687.191L728.132,687.191Z" style="fill:rgb(229,92,38);fill-rule:nonzero;"/>
        </g>
        <g transform="matrix(1.56282,0,0,1.56282,-369.917,-226.987)">
            <path d="M505.249,378.507L520.273,395.116L505.249,395.116L505.249,378.507ZM364.588,222.987L364.58,222.994L444.564,311.418L427.034,331.01L348.819,243.593L348.819,395.116L320.907,395.116L320.907,174.886L364.588,222.987ZM533.161,384.069L505.249,353.211L505.249,243.593L455.942,298.701L438.366,279.271L533.161,174.886L533.161,384.069Z" style="fill:rgb(229,92,38);fill-rule:nonzero;"/>
        </g>
    </g>
</svg>
