<?xml version="1.0" encoding="UTF-8" standalone="no"?>
<!DOCTYPE svg PUBLIC "-//W3C//DTD SVG 1.1//EN" "http://www.w3.org/Graphics/SVG/1.1/DTD/svg11.dtd">
<svg width="100%" height="100%" viewBox="0 0 1080 1080" version="1.1" xmlns="http://www.w3.org/2000/svg" xmlns:xlink="http://www.w3.org/1999/xlink" xml:space="preserve" xmlns:serif="http://www.serif.com/" style="fill-rule:evenodd;clip-rule:evenodd;stroke-linejoin:round;stroke-miterlimit:2;">
    <g transform="matrix(0.478833,0,0,0.478833,-312.002,-79.0318)">
        <g>
            <g>
                <g transform="matrix(6.17811,0,0,6.17811,-2292.08,-925.29)">
                    <circle cx="659.006" cy="359.023" r="175.76" style="fill:rgb(18,11,9);"/>
                </g>
                <g transform="matrix(5.9779,0,0,5.9779,-773.434,-410.914)">
                    <path d="M505.249,378.507L520.273,395.116L505.249,395.116L505.249,378.507ZM364.588,222.987L364.58,222.994L444.564,311.418L427.034,331.01L348.819,243.593L348.819,395.116L320.907,395.116L320.907,174.886L364.588,222.987ZM533.161,384.069L505.249,353.211L505.249,243.593L455.942,298.701L438.366,279.271L533.161,174.886L533.161,384.069Z" style="fill:rgb(235,100,47);fill-rule:nonzero;"/>
                </g>
            </g>
        </g>
    </g>
</svg>
