<?xml version="1.0" encoding="UTF-8" standalone="no"?>
<!DOCTYPE svg PUBLIC "-//W3C//DTD SVG 1.1//EN" "http://www.w3.org/Graphics/SVG/1.1/DTD/svg11.dtd">
<svg width="100%" height="100%" viewBox="0 0 1920 1080" version="1.1" xmlns="http://www.w3.org/2000/svg" xmlns:xlink="http://www.w3.org/1999/xlink" xml:space="preserve" xmlns:serif="http://www.serif.com/" style="fill-rule:evenodd;clip-rule:evenodd;stroke-linejoin:round;stroke-miterlimit:2;">
    <rect x="0" y="0" width="1920" height="1080" style="fill:white;"/>
    <g transform="matrix(4.16667,0,0,4.16667,-515.989,-1551.2)">
        <g transform="matrix(1.3336,0,0,1.3336,72.0297,84.9002)">
            <g transform="matrix(0.655395,0,0,0.655395,-19.736,181.504)">
                <path d="M494.391,178.523L504.034,178.523L504.034,217.284L494.391,217.284L494.391,178.523ZM463.749,178.523L490.414,178.523L490.414,187.015L473.391,187.015L473.391,193.819L487.935,193.819L487.935,202.312L473.391,202.312L473.391,217.283L463.749,217.283L463.749,178.523ZM559.183,178.523L568.825,178.523L568.825,217.283L559.183,217.283L559.183,201.931L548.936,201.931L548.936,217.283L539.293,217.283L539.293,178.523L548.936,178.523L548.936,193.439L559.183,193.439L559.183,178.523ZM593.186,204.599C592.966,205.741 592.579,206.667 592.084,207.375C591.148,208.519 589.88,209.117 588.229,209.117C586.575,209.117 585.308,208.519 584.371,207.375C584.04,206.94 583.765,206.449 583.544,205.851C583.379,205.307 583.214,204.381 583.104,203.129C582.994,201.931 582.939,200.19 582.939,197.902C582.939,195.616 582.994,193.874 583.104,192.622C583.214,191.369 583.379,190.499 583.544,189.9C583.765,189.301 584.04,188.812 584.371,188.375C584.757,187.886 585.308,187.45 585.969,187.178C586.63,186.852 587.401,186.688 588.229,186.688C589.054,186.688 589.826,186.852 590.542,187.178C591.203,187.505 591.754,187.886 592.084,188.375C592.579,189.028 592.966,189.954 593.186,191.152C593.407,192.35 593.517,194.582 593.517,197.902C593.517,201.224 593.407,203.401 593.186,204.599M602.937,190.988C602.773,189.465 602.387,187.94 601.836,186.47C601.285,185 600.404,183.694 599.192,182.55C597.759,181.08 596.106,179.992 594.399,179.284C592.635,178.576 590.597,178.195 588.229,178.195C585.859,178.195 583.82,178.576 582.113,179.284C580.405,179.992 578.751,181.08 577.264,182.55C575.556,184.238 574.454,186.144 574.013,188.321C573.518,190.499 573.297,193.276 573.297,196.596L573.297,199.209C573.297,202.53 573.518,205.307 574.013,207.43C574.454,209.608 575.556,211.568 577.264,213.255C578.256,214.235 579.247,215.051 580.349,215.651C581.452,216.304 582.608,216.794 583.93,217.12C585.198,217.446 586.63,217.611 588.229,217.611C590.597,217.611 592.635,217.229 594.399,216.522C596.161,215.759 597.759,214.67 599.192,213.255C600.404,212.057 601.285,210.75 601.836,209.335C602.387,207.865 602.773,206.341 602.937,204.817C603.104,203.237 603.159,201.387 603.159,199.209L603.159,196.596C603.159,194.418 603.104,192.568 602.937,190.988M519.396,208.791L535.87,208.791L535.87,217.283L509.754,217.283L509.754,178.523L519.396,178.523L519.396,208.791ZM391.969,178.523L418.635,178.523L418.635,187.015L401.611,187.015L401.611,193.493L416.156,193.493L416.156,201.986L401.611,201.986L401.611,208.791L418.635,208.791L418.635,217.283L391.969,217.283L391.969,178.523ZM448.931,200.461C449.372,201.877 449.592,203.51 449.592,205.415C449.592,207.974 448.931,210.152 447.553,212.003C446.232,213.854 444.358,215.215 442.044,216.194C439.785,217.12 437.196,217.611 434.442,217.611C431.191,217.611 428.381,217.229 425.956,216.467C423.587,215.704 421.439,214.399 419.566,212.492L425.737,206.395C426.728,207.32 427.995,208.028 429.593,208.464C431.135,208.9 432.788,209.117 434.496,209.117C438.243,209.117 440.116,207.974 440.116,205.633C440.116,204.653 439.84,203.891 439.345,203.347C438.793,202.803 437.967,202.476 436.755,202.312L432.017,201.658C428.546,201.169 425.902,200.026 424.139,198.229C422.321,196.378 421.439,193.819 421.439,190.444C421.439,188.049 422.045,185.981 423.202,184.129C424.359,182.278 426.012,180.809 428.16,179.774C430.309,178.739 432.844,178.195 435.764,178.195C438.628,178.195 441.162,178.576 443.311,179.284C445.515,180.046 447.388,181.19 448.987,182.822L442.926,188.812C441.934,187.831 440.832,187.178 439.675,186.905C438.518,186.633 437.141,186.525 435.489,186.525C433.946,186.525 432.788,186.905 431.962,187.613C431.135,188.321 430.75,189.193 430.75,190.118C430.75,190.825 431.026,191.424 431.521,191.914C432.127,192.513 433.064,192.895 434.221,193.058L438.959,193.711C442.43,194.201 444.964,195.29 446.672,196.923C447.719,197.902 448.435,199.101 448.931,200.461M301.223,178.523L310.865,178.523L310.865,217.284L301.223,217.284L301.223,178.523ZM296.443,200.461C296.884,201.877 297.104,203.51 297.104,205.415C297.104,207.974 296.443,210.152 295.066,212.003C293.743,213.854 291.87,215.215 289.556,216.194C287.297,217.12 284.708,217.611 281.953,217.611C278.702,217.611 275.893,217.229 273.469,216.467C271.1,215.704 268.951,214.399 267.077,212.492L273.248,206.395C274.24,207.32 275.507,208.028 277.105,208.464C278.648,208.9 280.3,209.117 282.008,209.117C285.754,209.117 287.628,207.974 287.628,205.633C287.628,204.653 287.352,203.891 286.857,203.347C286.306,202.803 285.479,202.476 284.267,202.312L279.529,201.658C276.058,201.169 273.413,200.026 271.651,198.229C269.832,196.378 268.951,193.819 268.951,190.444C268.951,188.049 269.557,185.981 270.714,184.129C271.87,182.278 273.524,180.809 275.672,179.774C277.822,178.739 280.356,178.195 283.276,178.195C286.14,178.195 288.675,178.576 290.824,179.284C293.028,180.046 294.901,181.19 296.498,182.822L290.438,188.812C289.446,187.831 288.344,187.178 287.187,186.905C286.03,186.633 284.653,186.525 283,186.525C281.457,186.525 280.3,186.905 279.474,187.613C278.648,188.321 278.262,189.193 278.262,190.118C278.262,190.825 278.537,191.424 279.033,191.914C279.639,192.513 280.576,192.895 281.733,193.058L286.471,193.711C289.942,194.201 292.476,195.29 294.184,196.923C295.231,197.902 295.948,199.101 296.443,200.461M343.693,178.523L353.168,178.523L353.168,217.283L343.528,217.283L343.528,198.72L337.963,208.301L331.792,208.301L326.228,198.72L326.228,217.283L316.586,217.283L316.586,178.523L326.063,178.523L334.877,195.616L343.693,178.523ZM365.681,173.514L361.935,169.757C363.147,168.505 364.304,167.634 365.241,167.144C366.232,166.6 367.389,166.327 368.657,166.327C370.254,166.327 371.742,166.708 373.118,167.525C374.165,168.123 375.158,168.45 376.149,168.45C376.7,168.45 377.196,168.342 377.692,168.178C378.188,167.96 378.739,167.579 379.344,166.981L383.201,170.737C381.989,171.935 380.887,172.806 379.84,173.35C378.849,173.895 377.692,174.167 376.424,174.167C375.543,174.167 374.827,174.112 374.165,173.949C373.56,173.786 372.788,173.459 371.962,172.969C370.86,172.37 369.814,172.044 368.877,172.044C368.326,172.044 367.829,172.152 367.334,172.316C366.894,172.479 366.287,172.914 365.681,173.514M377.527,204.599C377.306,205.741 376.92,206.667 376.424,207.375C375.488,208.519 374.221,209.117 372.568,209.117C370.915,209.117 369.648,208.519 368.711,207.375C368.381,206.94 368.105,206.449 367.885,205.851C367.72,205.307 367.555,204.381 367.444,203.129C367.334,201.931 367.28,200.19 367.28,197.902C367.28,195.616 367.334,193.874 367.444,192.622C367.555,191.369 367.72,190.499 367.885,189.9C368.105,189.301 368.381,188.812 368.711,188.375C369.097,187.886 369.648,187.45 370.309,187.178C370.97,186.852 371.742,186.688 372.568,186.688C373.395,186.688 374.165,186.852 374.882,187.178C375.543,187.505 376.094,187.886 376.424,188.375C376.92,189.028 377.306,189.954 377.527,191.152C377.746,192.35 377.857,194.582 377.857,197.902C377.857,201.224 377.746,203.401 377.527,204.599M386.176,186.47C385.625,185 384.743,183.694 383.532,182.55C382.1,181.08 380.447,179.992 378.739,179.284C376.976,178.576 374.937,178.195 372.568,178.195C370.2,178.195 368.16,178.576 366.452,179.284C364.744,179.992 363.092,181.08 361.604,182.55C359.897,184.238 358.794,186.144 358.354,188.321C357.858,190.499 357.638,193.276 357.638,196.596L357.638,199.209C357.638,202.53 357.858,205.307 358.354,207.43C358.794,209.608 359.897,211.568 361.604,213.255C362.596,214.235 363.587,215.051 364.69,215.651C365.791,216.304 366.949,216.794 368.271,217.12C369.538,217.446 370.97,217.611 372.568,217.611C374.937,217.611 376.976,217.229 378.739,216.522C380.501,215.759 382.1,214.67 383.532,213.255C384.743,212.057 385.625,210.75 386.176,209.335C386.727,207.865 387.113,206.341 387.279,204.817C387.444,203.237 387.498,201.387 387.498,199.209L387.498,196.596C387.498,194.418 387.444,192.568 387.279,190.988C387.113,189.465 386.727,187.94 386.176,186.47" style="fill:rgb(27,67,46);fill-rule:nonzero;"/>
            </g>
            <g transform="matrix(0.655395,0,0,0.655395,266.084,286.521)">
                <path d="M0,-13.289L-9.298,-13.289C-9.681,-13.289 -10.006,-12.969 -10.006,-12.591C-10.006,-12.213 -9.681,-11.909 -9.298,-11.909L-5.414,-11.909L-5.414,-0.718C-5.414,-0.303 -5.068,0.038 -4.647,0.038C-4.229,0.038 -3.884,-0.303 -3.884,-0.718L-3.884,-11.909L0,-11.909C0.384,-11.909 0.708,-12.213 0.708,-12.591C0.708,-12.969 0.384,-13.289 0,-13.289M15.172,-13.385C14.75,-13.385 14.406,-13.043 14.406,-12.628L14.406,-5.596C14.406,-2.702 12.837,-1.227 10.369,-1.227C7.824,-1.227 6.274,-2.834 6.274,-5.689L6.274,-12.628C6.274,-13.043 5.932,-13.385 5.511,-13.385C5.108,-13.385 4.765,-13.043 4.765,-12.628L4.765,-5.596C4.765,-1.851 7.021,0.151 10.331,0.151C13.68,0.151 15.917,-1.851 15.917,-5.708L15.917,-12.628C15.917,-13.043 15.572,-13.385 15.172,-13.385M-15.17,-13.385C-15.572,-13.385 -15.917,-13.043 -15.917,-12.628L-15.917,-0.718C-15.917,-0.303 -15.572,0.038 -15.17,0.038C-14.75,0.038 -14.406,-0.303 -14.406,-0.718L-14.406,-12.628C-14.406,-13.043 -14.75,-13.385 -15.17,-13.385M85.845,-1.417L78.191,-1.417L78.191,-6.05L84.889,-6.05C85.271,-6.05 85.576,-6.352 85.576,-6.729C85.576,-7.089 85.271,-7.409 84.889,-7.409L78.191,-7.409L78.191,-11.929L85.748,-11.929C86.131,-11.929 86.438,-12.23 86.438,-12.608C86.438,-12.986 86.131,-13.289 85.748,-13.289L77.427,-13.289C77.024,-13.289 76.681,-12.948 76.681,-12.532L76.681,-0.811C76.681,-0.395 77.024,-0.057 77.427,-0.057L85.845,-0.057C86.228,-0.057 86.533,-0.357 86.533,-0.736C86.533,-1.114 86.228,-1.417 85.845,-1.417M30.095,-9.301C30.095,-10.927 28.831,-11.909 26.67,-11.909L22.537,-11.909L22.537,-6.54L26.65,-6.54C28.659,-6.54 30.095,-7.56 30.095,-9.263L30.095,-9.301ZM30.593,-11.966C31.242,-11.322 31.625,-10.396 31.625,-9.356L31.625,-9.318C31.625,-7.144 30.134,-5.879 28.048,-5.48L31.376,-1.246C31.529,-1.076 31.625,-0.906 31.625,-0.698C31.625,-0.303 31.242,0.038 30.859,0.038C30.555,0.038 30.323,-0.132 30.151,-0.357L26.384,-5.198L22.537,-5.198L22.537,-0.718C22.537,-0.303 22.192,0.038 21.771,0.038C21.37,0.038 21.025,-0.303 21.025,-0.718L21.025,-12.532C21.025,-12.948 21.37,-13.289 21.771,-13.289L26.784,-13.289C28.431,-13.289 29.75,-12.799 30.593,-11.966M70.387,-6.673C70.387,-9.602 68.226,-11.909 64.838,-11.909L61.7,-11.909L61.7,-1.435L64.838,-1.435C68.226,-1.435 70.387,-3.704 70.387,-6.636L70.387,-6.673ZM71.955,-6.71L71.955,-6.673C71.955,-2.948 69.048,-0.057 64.838,-0.057L60.936,-0.057C60.533,-0.057 60.188,-0.395 60.188,-0.811L60.188,-12.532C60.188,-12.948 60.533,-13.289 60.936,-13.289L64.838,-13.289C69.048,-13.289 71.955,-10.435 71.955,-6.71M45.036,-4.914L41.955,-11.683L38.875,-4.914L45.036,-4.914ZM48.403,-1.059C48.46,-0.926 48.499,-0.793 48.499,-0.681C48.499,-0.282 48.175,0.038 47.771,0.038C47.408,0.038 47.159,-0.207 47.025,-0.51L45.629,-3.554L38.282,-3.554L36.887,-0.473C36.752,-0.15 36.503,0.038 36.159,0.038C35.775,0.038 35.471,-0.265 35.471,-0.643C35.471,-0.756 35.489,-0.888 35.565,-1.038L40.999,-12.778C41.19,-13.194 41.478,-13.44 41.955,-13.44L42.032,-13.44C42.491,-13.44 42.799,-13.194 42.971,-12.778L48.403,-1.059ZM-65.125,-9.301C-65.125,-10.927 -66.389,-11.909 -68.55,-11.909L-72.683,-11.909L-72.683,-6.54L-68.568,-6.54C-66.561,-6.54 -65.125,-7.56 -65.125,-9.263L-65.125,-9.301ZM-64.627,-11.966C-63.978,-11.322 -63.595,-10.396 -63.595,-9.356L-63.595,-9.318C-63.595,-7.144 -65.086,-5.879 -67.173,-5.48L-63.844,-1.246C-63.689,-1.076 -63.595,-0.906 -63.595,-0.698C-63.595,-0.303 -63.978,0.038 -64.359,0.038C-64.666,0.038 -64.896,-0.132 -65.067,-0.357L-68.836,-5.198L-72.683,-5.198L-72.683,-0.718C-72.683,-0.303 -73.026,0.038 -73.448,0.038C-73.85,0.038 -74.193,-0.303 -74.193,-0.718L-74.193,-12.532C-74.193,-12.948 -73.85,-13.289 -73.448,-13.289L-68.436,-13.289C-66.79,-13.289 -65.47,-12.799 -64.627,-11.966M-80.01,-9.035C-80.01,-10.927 -81.445,-11.909 -83.606,-11.909L-86.993,-11.909L-86.993,-6.087L-83.684,-6.087C-81.464,-6.087 -80.01,-7.259 -80.01,-8.997L-80.01,-9.035ZM-78.479,-9.093L-78.479,-9.056C-78.479,-6.199 -80.891,-4.726 -83.741,-4.726L-86.993,-4.726L-86.993,-0.718C-86.993,-0.303 -87.337,0.038 -87.759,0.038C-88.16,0.038 -88.504,-0.303 -88.504,-0.718L-88.504,-12.532C-88.504,-12.948 -88.16,-13.289 -87.759,-13.289L-83.492,-13.289C-80.47,-13.289 -78.479,-11.701 -78.479,-9.093M-49.667,-1.417L-57.318,-1.417L-57.318,-6.05L-50.623,-6.05C-50.24,-6.05 -49.935,-6.352 -49.935,-6.729C-49.935,-7.089 -50.24,-7.409 -50.623,-7.409L-57.318,-7.409L-57.318,-11.929L-49.763,-11.929C-49.379,-11.929 -49.073,-12.23 -49.073,-12.608C-49.073,-12.986 -49.379,-13.289 -49.763,-13.289L-58.084,-13.289C-58.486,-13.289 -58.831,-12.948 -58.831,-12.532L-58.831,-0.811C-58.831,-0.395 -58.486,-0.057 -58.084,-0.057L-49.667,-0.057C-49.284,-0.057 -48.978,-0.357 -48.978,-0.736C-48.978,-1.114 -49.284,-1.417 -49.667,-1.417M-21.236,-1.417L-28.889,-1.417L-28.889,-6.05L-22.192,-6.05C-21.811,-6.05 -21.503,-6.352 -21.503,-6.729C-21.503,-7.089 -21.811,-7.409 -22.192,-7.409L-28.889,-7.409L-28.889,-11.929L-21.332,-11.929C-20.949,-11.929 -20.644,-12.23 -20.644,-12.608C-20.644,-12.986 -20.949,-13.289 -21.332,-13.289L-29.654,-13.289C-30.057,-13.289 -30.399,-12.948 -30.399,-12.532L-30.399,-0.811C-30.399,-0.395 -30.057,-0.057 -29.654,-0.057L-21.236,-0.057C-20.854,-0.057 -20.548,-0.357 -20.548,-0.736C-20.548,-1.114 -20.854,-1.417 -21.236,-1.417M-34.763,-12.608C-34.763,-12.23 -35.067,-11.909 -35.451,-11.909L-42.97,-11.909L-42.97,-7.184L-36.313,-7.184C-35.93,-7.184 -35.624,-6.881 -35.624,-6.503C-35.624,-6.124 -35.93,-5.821 -36.313,-5.821L-42.97,-5.821L-42.97,-0.718C-42.97,-0.303 -43.313,0.038 -43.734,0.038C-44.137,0.038 -44.48,-0.303 -44.48,-0.718L-44.48,-12.532C-44.48,-12.948 -44.137,-13.289 -43.734,-13.289L-35.451,-13.289C-35.067,-13.289 -34.763,-12.986 -34.763,-12.608" style="fill:rgb(27,67,46);fill-rule:nonzero;"/>
            </g>
            <g transform="matrix(0.655395,0,0,0.655395,308.417,344.17)">
                <path d="M0,-5.372L6.75,-5.372L6.75,-2.597C6.75,-1.351 6.618,-0.339 6.382,0.467C6.119,1.298 5.699,1.998 5.096,2.647C4.648,3.089 4.176,3.478 3.65,3.815C3.125,4.126 2.573,4.359 1.917,4.516C1.287,4.696 0.656,4.774 0,4.774C-0.631,4.774 -1.262,4.696 -1.839,4.542C-2.416,4.411 -2.968,4.178 -3.493,3.865C-4.019,3.581 -4.491,3.218 -4.912,2.803C-5.488,2.206 -5.909,1.583 -6.172,0.907C-6.408,0.26 -6.565,-0.468 -6.646,-1.245C-6.696,-2.024 -6.724,-3.166 -6.724,-4.62C-6.724,-5.735 -6.696,-6.643 -6.671,-7.293C-6.646,-7.941 -6.593,-8.564 -6.461,-9.109C-6.355,-9.654 -6.197,-10.174 -5.936,-10.642C-5.699,-11.135 -5.357,-11.601 -4.912,-12.042C-3.571,-13.365 -1.943,-14.015 0,-14.015C0.841,-14.015 1.576,-13.936 2.206,-13.756C2.862,-13.573 3.44,-13.313 3.992,-12.95C4.519,-12.612 5.068,-12.146 5.646,-11.575L3.729,-9.681C3.072,-10.329 2.495,-10.797 1.971,-11.082C1.444,-11.367 0.787,-11.497 0,-11.497C-0.524,-11.497 -1.051,-11.393 -1.55,-11.185C-2.049,-10.978 -2.47,-10.692 -2.784,-10.354C-3.229,-9.862 -3.546,-9.239 -3.678,-8.486C-3.809,-7.761 -3.888,-6.463 -3.888,-4.62C-3.888,-2.776 -3.809,-1.479 -3.678,-0.726C-3.546,0.025 -3.229,0.649 -2.784,1.142C-2.075,1.895 -1.155,2.258 0,2.258C1.234,2.258 2.232,1.815 2.994,0.96C3.599,0.284 3.913,-0.7 3.913,-1.974L3.913,-2.984L0,-2.984L0,-5.372ZM-98.971,-5.555L-98.971,-11.342L-94.769,-11.342C-93.797,-11.342 -93.035,-11.082 -92.457,-10.562C-91.879,-10.043 -91.59,-9.344 -91.59,-8.435C-91.59,-7.554 -91.879,-6.851 -92.457,-6.333C-93.035,-5.813 -93.823,-5.555 -94.769,-5.555L-98.971,-5.555ZM-89.778,-5.268C-89.096,-6.125 -88.754,-7.188 -88.754,-8.461C-88.754,-9.498 -88.99,-10.434 -89.463,-11.237C-89.936,-12.067 -90.619,-12.718 -91.512,-13.158C-92.404,-13.625 -93.402,-13.858 -94.559,-13.858L-101.833,-13.858L-101.833,4.618L-98.971,4.618L-98.971,-3.142L-95.425,-3.142L-91.485,4.618L-88.176,4.618L-92.483,-3.529C-91.38,-3.842 -90.487,-4.412 -89.778,-5.268M-115.117,-5.555L-115.117,-11.342L-110.915,-11.342C-109.943,-11.342 -109.182,-11.082 -108.604,-10.562C-108.026,-10.043 -107.737,-9.344 -107.737,-8.435C-107.737,-7.554 -108.026,-6.851 -108.604,-6.333C-109.182,-5.813 -109.97,-5.555 -110.915,-5.555L-115.117,-5.555ZM-105.925,-5.268C-105.242,-6.125 -104.9,-7.188 -104.9,-8.461C-104.9,-9.498 -105.137,-10.434 -105.61,-11.237C-106.082,-12.067 -106.766,-12.718 -107.658,-13.158C-108.552,-13.625 -109.549,-13.858 -110.705,-13.858L-117.979,-13.858L-117.979,4.618L-115.117,4.618L-115.117,-3.142L-111.571,-3.142L-107.633,4.618L-104.323,4.618L-108.63,-3.529C-107.527,-3.842 -106.634,-4.412 -105.925,-5.268M-23.748,-1.479L-20.833,-9.681L-17.996,-1.479L-23.748,-1.479ZM-22.041,-13.858L-28.896,4.618L-25.875,4.618L-24.588,0.907L-17.208,0.907L-15.921,4.618L-12.899,4.618L-19.756,-13.858L-22.041,-13.858ZM-32.73,-1.739C-32.784,-1.013 -32.889,-0.441 -33.046,0C-33.204,0.415 -33.439,0.777 -33.756,1.115C-34.491,1.868 -35.41,2.258 -36.539,2.258C-37.063,2.258 -37.59,2.153 -38.089,1.945C-38.562,1.737 -38.981,1.48 -39.324,1.115C-39.586,0.805 -39.77,0.545 -39.9,0.284C-40.031,0.052 -40.11,-0.286 -40.217,-0.726C-40.295,-1.168 -40.348,-1.687 -40.374,-2.259C-40.399,-2.854 -40.427,-3.634 -40.427,-4.62C-40.427,-6.463 -40.348,-7.761 -40.217,-8.486C-40.085,-9.239 -39.77,-9.862 -39.324,-10.354C-39.009,-10.692 -38.588,-10.978 -38.089,-11.185C-37.59,-11.393 -37.063,-11.497 -36.539,-11.497C-36.014,-11.497 -35.488,-11.393 -34.99,-11.185C-34.491,-10.978 -34.069,-10.692 -33.756,-10.354C-33.309,-9.889 -32.994,-9.267 -32.861,-8.514C-32.73,-7.761 -32.651,-6.463 -32.651,-4.62C-32.651,-3.427 -32.679,-2.467 -32.73,-1.739M-30.367,-10.147C-30.604,-10.822 -31.023,-11.472 -31.602,-12.042C-32.94,-13.365 -34.596,-14.015 -36.539,-14.015C-38.482,-14.015 -40.11,-13.365 -41.451,-12.042C-41.896,-11.601 -42.238,-11.135 -42.475,-10.642C-42.736,-10.174 -42.896,-9.654 -43,-9.109C-43.132,-8.564 -43.185,-7.941 -43.211,-7.293C-43.236,-6.643 -43.263,-5.735 -43.263,-4.62C-43.263,-3.166 -43.236,-2.024 -43.185,-1.245C-43.104,-0.468 -42.947,0.26 -42.711,0.907C-42.447,1.583 -42.027,2.206 -41.451,2.803C-40.11,4.126 -38.482,4.774 -36.539,4.774C-34.596,4.774 -32.94,4.126 -31.602,2.803C-31.023,2.232 -30.63,1.583 -30.367,0.907C-30.104,0.232 -29.946,-0.493 -29.895,-1.271C-29.843,-2.052 -29.814,-3.166 -29.814,-4.62C-29.814,-6.073 -29.843,-7.216 -29.895,-7.993C-29.946,-8.746 -30.104,-9.474 -30.367,-10.147M9.722,-13.858L21.697,-13.858L21.697,-11.342L12.584,-11.342L12.584,-5.943L20.357,-5.943L20.357,-3.452L12.584,-3.452L12.584,2.102L21.697,2.102L21.697,4.618L9.722,4.618L9.722,-13.858ZM-70.689,1.608L-67.644,1.608L-67.644,6.177L-70.689,8.643L-70.689,1.608ZM-82.746,-1.479L-79.831,-9.681L-76.994,-1.479L-82.746,-1.479ZM-81.038,-13.858L-87.894,4.618L-84.873,4.618L-83.586,0.907L-76.206,0.907L-74.919,4.618L-71.898,4.618L-78.754,-13.858L-81.038,-13.858ZM-173.09,-1.739C-173.143,-1.013 -173.248,-0.441 -173.405,0C-173.562,0.415 -173.8,0.777 -174.114,1.115C-174.85,1.868 -175.769,2.258 -176.898,2.258C-177.424,2.258 -177.949,2.153 -178.448,1.945C-178.921,1.737 -179.342,1.48 -179.683,1.115C-179.945,0.805 -180.129,0.545 -180.261,0.284C-180.392,0.052 -180.471,-0.286 -180.576,-0.726C-180.654,-1.168 -180.707,-1.687 -180.733,-2.259C-180.759,-2.854 -180.785,-3.634 -180.785,-4.62C-180.785,-6.463 -180.707,-7.761 -180.576,-8.486C-180.444,-9.239 -180.129,-9.862 -179.683,-10.354C-179.367,-10.692 -178.947,-10.978 -178.448,-11.185C-177.949,-11.393 -177.424,-11.497 -176.898,-11.497C-176.373,-11.497 -175.849,-11.393 -175.349,-11.185C-174.85,-10.978 -174.43,-10.692 -174.114,-10.354C-173.668,-9.889 -173.353,-9.267 -173.222,-8.514C-173.09,-7.761 -173.012,-6.463 -173.012,-4.62C-173.012,-3.427 -173.037,-2.467 -173.09,-1.739M-170.727,-10.147C-170.963,-10.822 -171.384,-11.472 -171.961,-12.042C-173.301,-13.365 -174.955,-14.015 -176.898,-14.015C-178.842,-14.015 -180.471,-13.365 -181.81,-12.042C-182.256,-11.601 -182.599,-11.135 -182.834,-10.642C-183.097,-10.174 -183.255,-9.654 -183.359,-9.109C-183.491,-8.564 -183.544,-7.941 -183.57,-7.293C-183.596,-6.643 -183.622,-5.735 -183.622,-4.62C-183.622,-3.166 -183.596,-2.024 -183.544,-1.245C-183.464,-0.468 -183.307,0.26 -183.07,0.907C-182.808,1.583 -182.388,2.206 -181.81,2.803C-180.471,4.126 -178.842,4.774 -176.898,4.774C-174.955,4.774 -173.301,4.126 -171.961,2.803C-171.384,2.232 -170.989,1.583 -170.727,0.907C-170.464,0.232 -170.307,-0.493 -170.254,-1.271C-170.201,-2.052 -170.175,-3.166 -170.175,-4.62C-170.175,-6.073 -170.201,-7.216 -170.254,-7.993C-170.307,-8.746 -170.464,-9.474 -170.727,-10.147M-189.298,0.753C-189.534,1.168 -189.875,1.505 -190.348,1.737C-190.82,1.973 -191.372,2.102 -192.003,2.102L-196.468,2.102L-196.468,-3.529L-192.003,-3.529C-191.372,-3.529 -190.82,-3.4 -190.348,-3.166C-189.875,-2.934 -189.534,-2.621 -189.298,-2.206C-189.062,-1.791 -188.93,-1.299 -188.93,-0.726C-188.93,-0.155 -189.062,0.312 -189.298,0.753M-196.468,-11.342L-192.266,-11.342C-191.661,-11.342 -191.109,-11.237 -190.663,-11.03C-190.217,-10.822 -189.849,-10.512 -189.587,-10.121C-189.35,-9.706 -189.219,-9.239 -189.219,-8.694C-189.219,-7.863 -189.481,-7.216 -190.033,-6.748C-190.584,-6.28 -191.32,-6.048 -192.266,-6.048L-196.468,-6.048L-196.468,-11.342ZM-188.903,-4.879C-188.457,-5.06 -188.062,-5.32 -187.669,-5.684C-187.275,-6.048 -186.986,-6.515 -186.75,-7.033C-186.514,-7.578 -186.382,-8.176 -186.382,-8.799C-186.382,-9.836 -186.619,-10.72 -187.063,-11.472C-187.538,-12.25 -188.194,-12.848 -189.062,-13.235C-189.901,-13.651 -190.899,-13.858 -192.028,-13.858L-199.33,-13.858L-199.33,4.618L-191.767,4.618C-190.663,4.618 -189.665,4.411 -188.799,4.023C-187.958,3.607 -187.275,3.036 -186.803,2.232C-186.33,1.452 -186.093,0.52 -186.093,-0.598C-186.093,-1.687 -186.356,-2.597 -186.907,-3.322C-187.433,-4.05 -188.115,-4.568 -188.903,-4.879M40.796,-13.858L53.928,-13.858L53.928,-11.342L48.78,-11.342L48.78,4.618L45.943,4.618L45.943,-11.342L40.796,-11.342L40.796,-13.858ZM58.946,-11.342L58.946,-5.943L66.721,-5.943L66.721,-3.452L58.946,-3.452L58.946,2.102L68.061,2.102L68.061,4.618L56.083,4.618L56.083,-13.858L68.061,-13.858L68.061,-11.342L58.946,-11.342ZM-148.055,-13.858L-134.923,-13.858L-134.923,-11.342L-140.07,-11.342L-140.07,4.618L-142.907,4.618L-142.907,-11.342L-148.055,-11.342L-148.055,-13.858ZM-132.768,-13.858L-120.791,-13.858L-120.791,-11.342L-129.905,-11.342L-129.905,-5.943L-122.131,-5.943L-122.131,-3.452L-129.905,-3.452L-129.905,2.102L-120.791,2.102L-120.791,4.618L-132.768,4.618L-132.768,-13.858ZM-164.108,-1.479L-161.192,-9.681L-158.356,-1.479L-164.108,-1.479ZM-162.4,-13.858L-169.256,4.618L-166.235,4.618L-164.948,0.907L-157.568,0.907L-156.281,4.618L-153.261,4.618L-160.116,-13.858L-162.4,-13.858ZM35.775,-13.858L38.612,-13.858L38.612,4.618L36.013,4.618L27.371,-8.384L27.371,4.618L24.508,4.618L24.508,-13.858L27.135,-13.858L35.775,-0.884L35.775,-13.858ZM-48.938,0.753C-49.175,1.168 -49.516,1.505 -49.988,1.737C-50.462,1.973 -51.014,2.102 -51.644,2.102L-56.107,2.102L-56.107,-3.529L-51.644,-3.529C-51.014,-3.529 -50.462,-3.4 -49.988,-3.166C-49.516,-2.934 -49.175,-2.621 -48.938,-2.206C-48.702,-1.791 -48.57,-1.299 -48.57,-0.726C-48.57,-0.155 -48.702,0.312 -48.938,0.753M-56.107,-11.342L-51.905,-11.342C-51.303,-11.342 -50.751,-11.237 -50.304,-11.03C-49.856,-10.822 -49.49,-10.512 -49.228,-10.121C-48.991,-9.706 -48.859,-9.239 -48.859,-8.694C-48.859,-7.863 -49.122,-7.216 -49.674,-6.748C-50.226,-6.28 -50.961,-6.048 -51.905,-6.048L-56.107,-6.048L-56.107,-11.342ZM-48.544,-4.879C-48.098,-5.06 -47.704,-5.32 -47.31,-5.684C-46.916,-6.048 -46.627,-6.515 -46.391,-7.033C-46.153,-7.578 -46.022,-8.176 -46.022,-8.799C-46.022,-9.836 -46.26,-10.72 -46.706,-11.472C-47.179,-12.25 -47.835,-12.848 -48.702,-13.235C-49.543,-13.651 -50.54,-13.858 -51.67,-13.858L-58.971,-13.858L-58.971,4.618L-51.406,4.618C-50.304,4.618 -49.306,4.411 -48.438,4.023C-47.599,3.607 -46.916,3.036 -46.442,2.232C-45.971,1.452 -45.733,0.52 -45.733,-0.598C-45.733,-1.687 -45.997,-2.597 -46.549,-3.322C-47.072,-4.05 -47.757,-4.568 -48.544,-4.879" style="fill:rgb(27,67,46);fill-rule:nonzero;"/>
            </g>
        </g>
        <g transform="matrix(0.618771,0,0,0.618771,173.125,495.954)">
            <path d="M0,19.179L-0.39,20.027C-0.229,20.05 -0.068,20.05 0.069,20.05C1.146,20.05 2.154,19.591 2.612,18.927C2.269,19.064 1.925,19.179 1.581,19.225C1.421,19.248 1.237,19.248 1.1,19.248C0.871,19.248 0.619,19.248 0.39,19.225C0.252,19.202 0.138,19.202 0,19.179M19.338,2.338C19.499,1.811 19.224,1.491 18.72,1.491C18.56,1.491 18.399,1.513 18.216,1.582C16.795,2.063 15.673,3.621 15.901,4.79C16.177,6.164 17.528,7.104 19.247,7.104C19.659,7.104 20.117,7.058 20.575,6.921C22.02,6.531 23.371,5.821 24.769,5.248C25.434,4.95 26.166,4.652 26.717,4.217C27.977,3.232 29.352,2.728 30.887,2.728L31.093,2.75C31.734,2.75 32.33,2.819 32.948,2.888L33.132,2.911C33.498,2.911 33.728,2.75 33.865,2.407C33.957,2.223 34.025,2.017 34.117,1.788C33.246,1.307 32.284,1.124 31.185,1.124C29.397,1.124 27.725,1.788 26.166,2.613C24.952,3.255 23.853,4.056 22.729,4.79C21.95,5.294 21.148,5.637 20.232,5.637L20.049,5.615C18.444,5.546 17.986,4.744 18.742,3.461C18.972,3.094 19.224,2.705 19.338,2.338M29.993,23.716C29.604,23.945 29.282,24.334 29.1,24.77C29.076,24.953 29.03,25.137 29.008,25.297C29.1,25.32 29.214,25.343 29.306,25.388C29.397,25.137 29.512,24.861 29.626,24.586C29.832,24.22 29.924,23.922 29.993,23.716M0.848,21.035C0.527,21.402 0.16,21.562 -0.321,21.562C-0.436,21.562 -0.55,21.539 -0.664,21.539C-0.344,21.929 0.16,22.135 0.779,22.135C1.237,22.135 1.719,22.02 2.154,21.768L0.848,21.035ZM41.701,-15.305C41.243,-15.534 40.83,-15.717 40.396,-15.946C40.716,-16.382 40.876,-16.771 40.418,-16.954C40.35,-16.977 40.234,-17 40.12,-17C39.892,-17 39.639,-16.931 39.479,-16.84C38.86,-16.45 39.25,-16.107 39.524,-15.763C39.135,-15.396 38.791,-15.075 38.379,-14.663C39.502,-14.892 40.578,-15.075 41.701,-15.305M35.469,-17.711C35.561,-17.619 35.629,-17.459 35.606,-17.321C35.515,-16.634 35.446,-15.946 35.286,-15.236C35.171,-14.8 34.919,-14.365 34.713,-13.861C35.858,-14.113 36.936,-14.365 38.104,-14.617C37.21,-15.442 36.568,-16.29 36.316,-17.367C36.248,-17.619 36.248,-17.825 36.522,-18.123C36.684,-18.283 36.706,-18.696 36.568,-18.902C36.386,-19.177 36.019,-19.36 35.675,-19.658C35.469,-19.36 35.354,-19.223 35.217,-19.039C34.735,-18.306 34.759,-18.192 35.469,-17.711M29.741,-10.837C34.255,-12.212 38.745,-13.22 43.466,-13.93L43.442,-14.984C38.608,-14.228 34.025,-13.197 29.488,-11.799L29.741,-10.837ZM42.251,-15.374C42.411,-15.396 42.755,-15.488 43.053,-15.488C43.626,-15.511 43.74,-15.74 43.81,-16.175C43.946,-17.459 44.176,-18.741 44.359,-20.025C44.405,-20.391 44.451,-20.735 44.496,-21.102C44.084,-20.804 43.764,-20.506 43.58,-20.162C43.466,-19.933 43.466,-19.521 43.626,-19.406C43.878,-19.2 43.924,-19.017 43.81,-18.764C43.305,-17.642 42.778,-16.519 42.251,-15.374M5.683,9.006L6.187,8.822L6.255,8.822L6.393,8.846L6.507,8.983C6.553,9.097 6.576,9.212 6.599,9.326C6.668,9.555 6.714,9.739 6.782,9.922C6.874,10.083 6.988,10.22 7.104,10.381L7.148,10.358C7.332,10.197 7.516,10.037 7.607,9.876C8.707,8.227 9.807,6.531 10.884,4.904L10.998,4.744C16.863,-4.306 23.073,-14.068 28.848,-24.172C30.497,-27.036 32.124,-29.946 33.682,-32.764C34.094,-33.474 34.483,-34.162 34.873,-34.872L34.827,-34.872C33.957,-33.704 33.086,-32.512 32.216,-31.321C29.1,-27.128 25.892,-22.797 22.867,-18.489C19.315,-13.472 15.855,-8.317 12.511,-3.321C11.502,-1.809 10.494,-0.32 9.486,1.193C8.042,3.324 6.645,5.5 5.293,7.608L4.262,9.189C4.239,9.235 4.216,9.304 4.216,9.395C4.33,9.395 4.468,9.372 4.583,9.349C4.927,9.258 5.293,9.12 5.683,9.006M28.091,-16.634C27.816,-16.863 27.403,-17.023 27.06,-17.183L26.945,-17.092C27.243,-16.45 27.541,-15.786 27.839,-15.144C28.274,-14.205 28.71,-13.265 29.146,-12.303C29.695,-12.487 30.222,-12.624 30.795,-12.807C30.589,-12.945 30.405,-13.036 30.291,-13.151C29.604,-13.838 28.893,-14.503 28.229,-15.19C28.045,-15.396 27.977,-15.603 28.206,-15.924C28.343,-16.107 28.251,-16.473 28.091,-16.634M34.392,-13.77C33.911,-13.953 33.453,-14.136 32.994,-14.32C33.246,-14.755 33.407,-15.19 32.834,-15.305L32.72,-15.328C32.444,-15.328 32.055,-15.19 31.872,-15.03C31.482,-14.663 31.711,-14.342 32.17,-14.091C31.803,-13.701 31.482,-13.334 31.115,-12.899C32.238,-13.197 33.292,-13.495 34.392,-13.77M31.367,-9.21C31.253,-9.37 31.069,-9.462 30.863,-9.462C30.771,-9.462 30.68,-9.439 30.589,-9.393L27.633,-7.972C27.427,-7.858 27.312,-7.675 27.289,-7.468C27.267,-7.239 27.357,-7.033 27.541,-6.919L28.984,-5.842C29.1,-5.773 29.236,-5.727 29.374,-5.727L29.443,-5.75C29.534,-5.75 29.604,-5.773 29.672,-5.819L29.764,-5.91L29.855,-5.979L29.947,-6.139C29.97,-6.185 29.993,-6.254 29.993,-6.346L29.993,-6.46C29.993,-6.598 30.016,-6.736 30.084,-6.896C30.153,-7.056 30.245,-7.194 30.359,-7.4C30.474,-7.537 30.635,-7.72 30.795,-7.904C30.955,-8.064 31.139,-8.248 31.299,-8.431C31.528,-8.637 31.551,-8.958 31.367,-9.21M44.451,-13.197L44.588,-13.197L44.611,-13.174C44.565,-13.082 44.542,-12.967 44.565,-12.83C44.588,-12.601 44.771,-12.395 45.001,-12.326C46.192,-11.959 47.314,-11.776 48.415,-11.776C48.575,-11.776 48.735,-11.776 48.896,-11.799C48.14,-11.57 47.269,-11.409 46.329,-11.295C46.055,-11.272 45.825,-11.043 45.779,-10.745C45.757,-10.47 45.917,-10.195 46.214,-10.104C47.178,-9.783 48.323,-9.416 49.583,-9.416C49.904,-9.416 50.248,-9.439 50.592,-9.508C51.072,-9.576 51.554,-9.599 52.035,-9.599C53.868,-9.599 55.518,-9.072 57.075,-7.972C57.464,-7.697 57.763,-7.4 57.992,-7.056C57.67,-7.148 57.328,-7.194 56.96,-7.194C56.663,-7.194 56.365,-7.171 56.067,-7.102C54.921,-6.942 53.845,-6.438 52.607,-5.544C52.378,-5.406 52.287,-5.109 52.378,-4.857C52.471,-4.605 52.699,-4.444 52.997,-4.444L53.479,-4.467C53.752,-4.49 53.982,-4.513 54.234,-4.513L54.395,-4.513C56.182,-4.513 57.648,-3.94 58.863,-2.772L58.954,-2.68C59.39,-2.267 59.848,-1.832 60.398,-1.488C60.741,-1.259 61.13,-1.145 61.543,-1.145L61.658,-1.145C61.269,-0.87 60.811,-0.709 60.307,-0.64C59.688,-0.572 59.045,-0.549 58.382,-0.503C58.152,-0.503 57.946,-0.503 57.717,-0.48C56.389,-0.411 55.563,-0.182 54.83,0.276C54.692,0.39 54.578,0.528 54.556,0.688C54.532,0.849 54.556,1.032 54.624,1.124C54.784,1.353 54.968,1.445 55.105,1.468C56.823,1.811 58.129,2.636 59.115,3.965C59.367,4.308 59.642,4.652 59.985,4.973C60.535,5.546 61.13,5.844 61.75,5.844C62.047,5.844 62.414,5.775 62.827,5.523C62.735,5.66 62.62,5.775 62.552,5.889C61.589,6.967 60.031,7.608 58.542,7.608C58.29,7.608 58.061,7.585 57.809,7.562C57.305,7.493 56.823,7.333 56.319,7.196C56.067,7.127 55.815,7.058 55.563,6.99L55.403,6.967C55.22,6.967 55.036,7.058 54.921,7.219C54.762,7.425 54.762,7.7 54.899,7.906C55.93,9.51 57.099,10.449 58.68,10.953C59.688,11.274 60.626,11.641 61.429,12.076C62.438,12.58 62.873,13.359 62.827,14.436C62.804,14.78 62.689,15.077 62.483,15.375C62.346,15.032 62.094,14.734 61.772,14.505C61.269,14.161 60.741,13.978 60.1,13.978C59.596,13.978 59.023,14.092 58.382,14.345C58.129,14.436 57.877,14.551 57.603,14.665C57.053,14.894 56.479,15.146 55.953,15.261C55.22,15.398 54.463,15.444 53.707,15.49C53.363,15.513 53.042,15.513 52.723,15.536C52.493,15.558 52.287,15.719 52.195,15.925C52.104,16.155 52.149,16.384 52.31,16.567C53.914,18.354 54.211,20.416 53.203,22.662C52.929,23.303 52.516,23.876 51.989,24.38C51.966,23.762 51.691,23.212 51.209,22.753C50.729,22.318 50.133,21.997 49.537,21.86L49.399,21.814C46.719,21.172 46.719,21.172 44.863,19.546C44.749,19.431 44.611,19.385 44.451,19.385C44.336,19.385 44.222,19.408 44.13,19.477C43.9,19.637 43.786,19.912 43.855,20.164C44.496,22.318 44.198,24.036 42.87,25.617C41.793,26.924 40.602,27.794 39.272,28.298C39.96,27.496 40.304,26.557 40.28,25.617C40.212,24.403 39.548,23.372 38.333,22.753C37.852,22.501 37.348,22.318 36.798,22.112C36.592,22.043 36.386,21.974 36.179,21.883L35.973,21.837C35.813,21.837 35.675,21.906 35.561,21.997L35.423,22.089C35.24,22.249 35.148,22.501 35.217,22.708L35.286,22.983C35.331,23.189 35.377,23.372 35.446,23.578C35.813,24.816 35.469,25.915 34.346,27.015C34.003,27.359 33.636,27.702 33.246,28.046L33.132,28.161C32.101,29.123 31.803,29.925 32.216,30.796C31.093,30.429 30.222,29.558 30.084,28.619C29.924,27.519 30.153,26.373 30.749,25.137C31.299,24.036 31.413,23.372 31.207,22.662C31.139,22.409 30.909,22.226 30.565,22.226C29.488,22.318 28.389,23.166 27.954,24.311C27.908,24.403 27.862,24.517 27.862,24.701C27.771,26.053 26.579,26.786 24.998,27.634L24.494,27.886C24.15,28.069 23.783,28.252 23.439,28.458C22.615,28.894 22.065,29.467 21.812,30.154C21.126,28.779 21.4,27.107 22.592,25.663C22.936,25.251 23.303,24.838 23.715,24.403C23.921,24.197 24.127,23.968 24.311,23.739C25.96,21.929 26.671,20.05 26.533,17.965C26.51,17.712 26.35,17.483 26.075,17.415L25.914,17.392C25.731,17.392 25.524,17.483 25.41,17.644L25.158,17.988C25.021,18.171 24.906,18.331 24.792,18.492C23.921,19.637 22.913,20.806 21.47,21.631C20.828,21.997 20.071,22.203 19.361,22.203C19.063,22.203 18.766,22.158 18.514,22.089C19.041,22.02 19.545,21.86 20.049,21.585C20.828,21.172 21.309,20.622 21.492,19.935L21.584,19.637C21.722,19.248 21.836,18.812 21.882,18.4C22.202,15.811 23.853,13.68 26.945,11.847C28.48,10.953 29.947,10.037 31.345,9.166C32.948,8.158 34.186,6.783 34.965,5.134C34.987,5.088 35.148,4.95 35.263,4.858L35.4,4.767L35.469,4.721L35.652,4.652C38.471,3.14 39.227,1.903 38.814,-0.663C38.608,-2.13 37.967,-3.459 36.866,-4.696C36.752,-4.834 36.568,-4.903 36.386,-4.903C36.271,-4.903 36.156,-4.88 36.064,-4.811C35.79,-4.65 35.698,-4.306 35.836,-4.031C35.973,-3.757 36.11,-3.505 36.248,-3.207C36.5,-2.68 36.752,-2.176 36.958,-1.672C37.302,-0.824 37.371,0.161 37.142,1.238C37.027,1.834 36.684,2.269 36.088,2.636C34.919,3.346 33.842,4.033 32.559,4.331C32.33,4.377 32.146,4.561 32.078,4.79L32.009,5.157C31.986,5.248 31.963,5.363 31.94,5.454C31.826,5.34 31.665,5.271 31.505,5.271L31.23,5.271C30.955,5.271 30.68,5.477 30.635,5.775C30.589,6.05 30.497,6.325 30.359,6.577C30.291,6.416 30.199,6.279 30.084,6.164C29.97,6.027 29.786,5.935 29.58,5.935C29.374,5.958 29.214,6.05 29.1,6.21C28.87,6.554 28.618,6.852 28.366,7.127C28.412,6.577 28.068,6.21 27.495,5.821C27.335,5.706 27.06,5.477 27.06,5.248C27.083,4.973 27.381,4.652 27.908,4.354C28.848,3.804 29.832,3.53 30.863,3.53C31.001,3.53 31.115,3.53 31.253,3.553C31.757,3.575 32.284,3.621 32.788,3.69C32.902,3.713 33.018,3.713 33.132,3.713C33.819,3.713 34.346,3.369 34.621,2.75C35.813,-0.068 35.698,-2.244 34.277,-4.1C33.796,-4.696 33.246,-4.994 32.628,-4.994C32.261,-4.994 31.849,-4.903 31.437,-4.673C31.023,-4.49 30.635,-4.1 30.359,-3.665C30.176,-3.39 30.062,-3.115 29.947,-2.84C29.855,-2.611 29.764,-2.382 29.649,-2.199C28.824,-0.87 26.831,0.207 25.158,0.207L24.998,0.207C24.562,0.184 24.54,0.093 24.54,0.024C24.517,-0.136 24.471,-0.251 24.448,-0.388C24.402,-0.48 24.379,-0.572 24.379,-0.663C24.265,-1.397 23.989,-1.992 23.577,-2.451C23.623,-2.451 23.691,-2.428 23.807,-2.428L23.898,-2.428C24.425,-2.451 24.769,-2.611 24.952,-2.863C25.181,-3.23 25.296,-3.917 24.814,-4.238C24.471,-4.467 24.059,-4.605 23.577,-4.605C23.303,-4.605 23.073,-4.49 22.844,-4.398C23.463,-5.154 24.311,-5.773 25.364,-6.231C25.616,-6.346 25.892,-6.438 26.144,-6.552L26.533,-6.713C26.671,-6.758 26.808,-6.873 26.877,-7.033C26.923,-7.194 26.923,-7.354 26.877,-7.514C26.647,-8.064 26.647,-8.064 27.335,-8.592C28.343,-9.347 29.558,-9.943 31.093,-10.379C35.331,-11.57 39.25,-12.441 43.053,-13.013C43.488,-13.082 43.97,-13.151 44.451,-13.197M29.03,36.295L29.19,36.455C29.19,35.837 29.488,35.126 30.474,34.485C30.817,34.256 31.161,33.958 31.505,33.706L31.643,33.591C32.101,33.247 32.353,32.835 32.422,32.331L32.444,32.285L32.353,32.262C30.107,31.781 28.87,30.612 28.618,28.757C28.526,28.023 28.572,27.29 28.732,26.488C28.389,27.061 27.862,27.565 27.175,27.977C26.327,28.458 25.434,28.963 24.448,29.49C23.187,30.177 23.027,30.612 23.165,31.529C23.211,31.781 23.119,31.987 23.05,32.125C22.936,32.446 22.707,32.606 22.432,32.606L22.271,32.583L22.202,32.583C22.02,32.537 21.744,32.491 21.561,32.262L21.446,32.125C21.126,31.758 20.828,31.346 20.575,30.91C20.095,30.016 19.911,29.1 20.025,28.092L18.834,29.009C17.505,30.016 16.177,31.025 14.87,32.056C13.679,32.995 12.304,33.568 10.976,34.118C10.219,34.416 9.44,34.76 8.729,35.126C8.478,35.241 8.203,35.309 7.859,35.309C6.736,35.309 5.041,34.576 4.651,33.706C4.491,33.385 4.078,32.629 3.392,32.629C3.094,32.629 2.796,32.743 2.452,32.972L2.521,32.995C2.681,33.064 2.841,33.201 2.887,33.385C2.956,33.568 2.933,33.751 2.818,33.912L1.649,35.584C1.535,35.768 1.352,35.859 1.146,35.859L1.008,35.859L0.71,35.791C0.733,35.928 0.756,36.02 0.825,36.089C0.939,36.203 1.191,36.272 1.513,36.272L1.649,36.272C1.902,36.249 2.2,36.18 2.521,36.089C2.681,36.043 2.818,36.02 2.956,35.974L3.024,35.951C3.162,35.905 3.322,35.837 3.506,35.837L3.735,35.883C4.399,36.089 5.063,36.295 5.797,36.524L6.599,36.799C6.851,36.89 7.034,37.142 7.012,37.417C7.012,37.67 6.805,37.922 6.553,37.991L5.797,38.151C5.315,38.265 4.927,38.357 4.514,38.471C4.193,38.563 3.896,38.609 3.62,38.609C3.276,38.609 2.979,38.54 2.635,38.357C2.429,38.265 2.177,38.22 1.925,38.22C1.467,38.22 0.985,38.357 0.664,38.586C0.985,38.678 1.329,38.884 1.375,39.25C1.443,39.778 1.421,40.282 1.397,40.717C1.375,41.106 1.008,41.404 0.733,41.519C0.985,41.748 1.215,41.863 1.513,41.863C1.833,41.863 2.2,41.702 2.681,41.381L2.75,41.336C2.864,41.267 3.002,41.175 3.048,41.106C3.758,40.259 4.766,39.915 5.591,39.617C6.026,39.457 6.438,39.296 6.851,39.113L7.446,38.884L7.676,38.838C7.859,38.838 8.042,38.907 8.157,39.067C8.34,39.273 8.34,39.571 8.18,39.8L8.042,39.984C7.378,40.969 6.622,42.069 5.063,42.344L5.018,42.366C4.354,42.687 3.941,43.008 3.85,43.352C3.804,43.49 3.826,43.65 3.896,43.833C3.987,43.65 4.102,43.49 4.216,43.329C4.33,43.169 4.514,43.077 4.72,43.077L4.857,43.077L5.087,43.146C5.361,43.191 5.613,43.237 5.865,43.352C6.324,43.535 6.782,43.741 6.942,44.222C7.034,44.543 6.966,44.841 6.805,45.162C6.966,45.139 7.104,45.139 7.24,45.093C7.882,44.979 8.363,44.704 8.592,44.36C8.753,44.108 8.799,43.787 8.707,43.467C8.707,43.398 8.638,43.306 8.592,43.214C8.523,43.1 8.455,42.985 8.409,42.848C8.34,42.664 8.157,42.183 8.478,41.817C8.661,41.588 8.845,41.336 9.005,41.106C9.646,40.19 10.38,39.204 11.823,38.723L12.006,38.7C12.167,38.7 12.35,38.769 12.465,38.884C12.625,39.067 12.671,39.319 12.579,39.548C12.511,39.755 12.419,39.984 12.419,40.053L12.579,40.19C12.693,40.053 12.831,39.961 13.015,39.938L15.329,39.617L15.397,39.594L15.604,39.64L15.695,39.548C16.405,39.044 16.451,38.632 16.383,38.311C16.337,38.151 16.291,37.991 16.245,37.83L16.153,37.509C16.107,37.349 16.131,37.188 16.223,37.051C16.291,36.89 16.451,36.799 16.611,36.753C16.727,36.73 16.863,36.684 16.979,36.638C17.276,36.547 17.574,36.478 17.849,36.478C17.964,36.478 18.056,36.478 18.17,36.524C18.742,36.73 19.247,37.234 19.521,37.899C19.705,38.334 19.773,38.815 19.728,39.25C21.011,38.036 21.606,36.638 21.516,35.012C21.516,34.828 21.584,34.645 21.722,34.531C21.836,34.416 21.974,34.37 22.134,34.37L22.226,34.37C23.165,34.531 23.715,34.828 24.013,35.332C24.288,35.791 24.288,36.318 24.013,37.051C23.967,37.188 23.921,37.28 23.898,37.417C24.356,36.845 24.906,36.455 25.41,36.158C25.914,35.814 26.258,35.332 26.441,34.668C26.533,34.324 26.602,33.958 26.693,33.591L26.808,33.064C26.831,32.881 26.969,32.721 27.151,32.629C27.221,32.606 27.312,32.583 27.403,32.583C27.495,32.583 27.609,32.606 27.702,32.652C29.03,33.385 29.443,34.393 28.962,35.768C28.893,35.951 28.916,36.158 29.03,36.295M35.469,34.187C35.744,34.164 36.019,34.118 36.294,34.095C36.684,34.026 37.096,34.004 37.508,33.935C37.073,33.912 36.638,33.774 36.179,33.522L35.469,34.187ZM50.362,23.991C50.11,23.51 49.583,23.303 49.17,23.235L49.011,23.189C47.842,22.96 46.65,22.708 45.619,22.089C45.527,25.274 43.855,27.496 40.212,29.444C40.098,29.49 40.028,29.581 40.006,29.604C39.73,30.016 39.456,30.475 39.158,31.025C39.066,31.162 39.021,31.277 39.021,31.323C39.066,31.346 39.158,31.391 39.318,31.437C39.57,31.506 39.868,31.552 40.166,31.62C40.35,31.643 40.487,31.666 40.67,31.689C40.899,31.758 41.105,31.941 41.151,32.193C41.197,32.4 41.129,32.606 40.991,32.743C41.747,32.583 42.526,32.4 43.282,32.216C45.71,31.666 48.186,31.094 50.683,31.094C50.866,30.75 51.072,30.452 51.255,30.108C51.852,29.146 52.401,28.229 53.021,27.29C53.662,26.373 54.372,25.457 55.06,24.563L55.495,23.991L54.463,23.418C53.776,24.701 52.883,25.663 51.667,26.419C51.485,26.534 51.302,26.58 51.142,26.603L51.003,26.649L50.82,26.671C50.683,26.671 50.568,26.625 50.454,26.557C50.293,26.442 50.202,26.259 50.202,26.075C50.179,25.869 50.133,25.617 50.271,25.366C50.5,24.838 50.545,24.357 50.362,23.991M1.329,16.109L1.535,16.132L1.443,15.811L1.329,16.109ZM12.809,41.611C12.693,41.748 12.533,41.84 12.373,41.908L12.602,41.931C13.45,41.931 14.526,41.404 15.008,40.533L13.289,40.785L13.198,40.969C13.083,41.221 12.991,41.427 12.809,41.611M2.2,16.384C2.36,16.429 2.543,16.452 2.727,16.452C2.818,16.452 2.887,16.452 3.002,16.429L2.979,16.407L2.933,16.292L2.864,16.223C2.566,15.834 2.245,15.444 1.925,15.077L1.879,15.054L1.879,15.1C1.948,15.329 2.063,15.558 2.154,15.811L2.269,16.086L2.269,16.269L2.2,16.384ZM0.848,16.956C0.756,17.094 0.664,17.231 0.573,17.392C0.917,17.506 1.26,17.575 1.627,17.575C2.406,17.575 3.116,17.3 3.62,16.842C3.3,16.91 3.002,16.956 2.75,16.956C2.337,16.956 1.971,16.865 1.649,16.704C1.535,16.636 1.421,16.613 1.329,16.613C1.237,16.613 1.077,16.658 0.848,16.956M6.095,44.475C6.049,44.36 5.659,44.2 5.545,44.154C5.361,44.085 5.155,44.039 4.949,43.993L4.835,43.971C4.17,44.933 4.01,46.055 4.376,46.835C4.583,47.27 4.927,47.568 5.361,47.682L5.361,47.614C5.087,46.835 5.225,46.01 5.843,45.093C5.911,44.979 6.141,44.612 6.095,44.475M1.902,33.706C1.421,33.591 0.962,33.522 0.527,33.522C-0.252,33.522 -0.985,33.729 -1.695,34.164C-2.085,34.393 -2.475,34.645 -2.704,35.012C-1.947,34.783 -1.512,34.668 -1.008,34.668C-0.527,34.668 0.046,34.783 1.031,34.966L1.902,33.706ZM-2.887,42.435C-1.604,41.404 -1.421,41.336 0.39,40.717L0.527,40.625C0.55,40.259 0.573,39.846 0.527,39.457L0.321,39.411C-0.55,39.594 -1.329,39.984 -1.901,40.533C-2.543,41.152 -2.864,41.748 -2.887,42.435M38.241,32.56C38.113,32.485 37.992,32.396 37.889,32.29C37.778,32.178 37.695,32.07 37.653,31.916C37.589,31.677 37.58,31.401 37.611,31.156C37.639,30.934 37.704,30.719 37.791,30.514C37.837,30.407 37.888,30.303 37.943,30.2L38.013,30.062L36.179,30.269C35.813,30.269 35.561,30.062 35.515,29.764L35.469,29.581C35.423,29.283 35.606,29.009 35.858,28.894C37.852,28.161 38.86,26.924 38.814,25.297C38.814,24.77 38.035,24.036 36.981,23.67C37.279,25.343 36.592,26.97 34.896,28.504L34.621,28.734C34.369,28.963 34.163,29.146 33.957,29.352C33.315,29.948 33.453,30.085 33.728,30.406C33.911,30.612 34.14,30.819 34.392,31.025C34.529,31.162 34.667,31.254 34.781,31.368C34.942,31.529 35.011,31.758 34.965,31.964C34.919,32.079 34.873,32.193 34.781,32.262C34.851,32.468 34.873,32.698 34.873,32.904L35.813,32.148C35.927,32.056 36.064,32.033 36.202,32.033C36.362,32.033 36.5,32.079 36.638,32.193C36.936,32.491 37.302,32.629 37.715,32.629C37.897,32.629 38.058,32.606 38.241,32.56M-28.71,-90.963L-33.246,-90.229L-32.49,-86.999L-28.183,-87.755L-28.71,-90.963ZM-26.464,-81.133L-30.887,-80.262L-29.672,-75.198L-25.433,-76.299L-26.464,-81.133ZM121.552,-76.001L122.697,-80.308L116.694,-80.629L116.122,-76.344L121.552,-76.001ZM124.691,-87.846L125.653,-91.444L118.895,-91.444L118.895,-87.846L124.691,-87.846ZM-32.88,82.12C-22.592,80.861 -18.88,75.681 -17.986,74.1C-16.979,72.337 -16.933,70.939 -17.207,70.274C-19.728,64.202 -27.381,62.392 -35.606,62.392C-45.527,62.392 -56.297,65.027 -59.894,65.99L-53.249,85.718C-48.208,83.656 -41.403,82.441 -32.88,82.12M-33.979,106.637C-28.549,104.667 -14.618,98.892 -12.327,94.722C-10.632,91.653 -12.899,81.823 -15.329,74.284C-15.466,74.652 -15.649,74.994 -15.855,75.384C-18.628,80.242 -24.906,83.701 -32.628,84.64L-32.742,84.64C-43.809,85.053 -57.58,87.277 -60.673,95.501C-60.261,97.975 -59.55,100.336 -57.9,101.435L-57.74,101.574C-55.242,103.887 -49.95,106.888 -39.387,106.888C-37.715,106.888 -35.927,106.798 -33.979,106.637M151.178,92.958C150.193,91.377 146.16,88.512 130.099,87.277C123.019,86.725 110.737,80.814 106.498,74.674C106.27,74.33 106.063,73.987 105.879,73.642C103.405,80.7 101.229,89.338 102.81,92.202C105.101,96.372 119.994,102.054 125.722,103.956C127.921,104.139 129.915,104.208 131.748,104.208C140.867,104.208 145.702,102.284 148.291,100.267C149.437,99.374 150.33,98.227 150.88,96.876C151.086,96.348 151.315,95.73 151.453,95.113C151.591,94.355 151.591,93.599 151.178,92.958M111.745,64.546C109.454,65.783 108.079,67.41 107.507,69.495C107.208,70.55 107.553,71.809 108.537,73.23C112.318,78.752 123.866,84.274 130.282,84.779C136.033,85.214 140.685,85.878 144.305,86.795L150.33,64.867C146.664,63.973 136.125,61.866 126.341,61.866C120.728,61.866 115.389,62.553 111.745,64.546M109.82,111.128C108.95,110.509 107.987,110.12 106.957,109.914C104.734,109.523 103.016,110.418 102.649,112.343C102.26,114.382 103.634,115.275 105.124,116.009C106.178,116.512 107.048,116.971 106.865,117.956C106.636,119.147 105.696,119.307 104.665,119.124C104.23,119.033 103.817,118.918 103.52,118.782C103.245,118.62 103.245,118.482 103.291,118.185L103.474,117.222L101.824,117.039L101.343,119.537C102.213,120.156 103.176,120.545 104.458,120.774C106.659,121.186 108.537,120.339 108.927,118.254C109.316,116.215 107.896,115.275 106.543,114.542C105.398,113.969 104.528,113.534 104.71,112.549C104.895,111.563 105.696,111.311 106.659,111.494C106.957,111.54 107.369,111.656 107.667,111.815C107.941,111.953 107.964,112.09 107.896,112.411L107.735,113.304L109.386,113.511L109.82,111.128ZM100.838,110.257L101.366,110.326L101.664,109.065L97.86,108.149L97.517,109.478L98.41,109.73L96.623,116.925C96.531,117.337 96.348,117.383 96.027,117.337L95.5,117.268L95.18,118.529L99.029,119.468L99.35,118.139L98.456,117.865L100.243,110.646C100.334,110.281 100.541,110.211 100.838,110.257M93.301,109.18L93.048,110.394L94.698,110.624L95.248,107.92C94.377,107.302 93.323,106.867 92.384,106.682C89.933,106.201 87.092,107.073 86.243,111.174C85.511,114.794 86.931,116.948 90.162,117.589C91.192,117.796 92.476,117.841 93.438,117.566L94.011,114.84L92.407,114.405L92.132,115.665C92.085,115.963 91.995,116.077 91.697,116.123C91.375,116.145 90.963,116.123 90.504,116.032C88.283,115.641 87.755,113.947 88.26,111.45C88.741,109.065 90.046,107.851 92.063,108.242C92.384,108.309 92.796,108.424 93.071,108.585C93.323,108.745 93.347,108.883 93.301,109.18M84.182,114.817L83.288,114.634L83.265,114.634L81.203,104.988L77.514,104.506L77.33,105.812L78.338,106.018L74.741,113.144C74.581,113.419 74.489,113.511 74.191,113.511L73.664,113.489L73.481,114.794L77.216,115.275L77.399,113.923L76.437,113.741L77.102,112.411L80.882,112.892L81.087,113.923C81.157,114.29 80.974,114.382 80.629,114.358L80.012,114.336L79.851,115.619L83.998,116.169L84.182,114.817ZM74.329,107.439C74.489,105.285 73.138,104.025 70.754,103.818L66.104,103.429L66.012,104.804L66.928,104.919L66.286,112.411C66.264,112.709 66.034,112.801 65.782,112.801L65.232,112.824L65.118,114.106L69.654,114.496L69.77,113.144L68.234,112.961L68.417,110.624L69.815,110.739C72.244,110.945 74.1,109.868 74.329,107.439M59.757,110.762C59.825,108.676 58.267,107.966 56.801,107.462C55.609,107.073 54.669,106.752 54.692,105.766C54.716,104.758 55.495,104.391 56.434,104.414C56.754,104.437 57.19,104.483 57.488,104.575C57.786,104.689 57.832,104.827 57.809,105.125L57.786,106.064L59.458,105.995L59.527,103.566C58.565,103.086 57.557,102.856 56.479,102.834C54.234,102.764 52.677,103.91 52.63,105.881C52.562,107.92 54.052,108.631 55.632,109.112C56.754,109.455 57.694,109.753 57.648,110.784C57.625,111.975 56.732,112.297 55.655,112.273C55.22,112.251 54.784,112.205 54.486,112.09C54.211,111.975 54.166,111.838 54.166,111.54L54.188,110.554L52.539,110.624L52.471,113.167C53.433,113.648 54.417,113.9 55.724,113.923C57.97,113.992 59.688,112.869 59.757,110.762M50.958,102.88L47.085,102.903L47.108,104.254L48.047,104.324L48.071,110.211C48.071,111.54 47.269,112.181 45.962,112.181C44.657,112.205 43.832,111.723 43.81,110.142L43.786,104.804C43.786,104.391 43.97,104.3 44.29,104.254L44.817,104.208L44.817,102.903L40.876,102.925L40.876,104.3L41.815,104.346L41.861,110.257C41.861,112.778 43.236,113.832 45.895,113.832C48.369,113.808 49.973,112.595 49.973,110.487L49.949,104.713C49.949,104.391 50.11,104.278 50.408,104.231L50.958,104.185L50.958,102.88ZM39.937,113.648L39.822,110.464L38.149,110.418L38.195,111.54C38.219,111.838 38.195,112.045 37.852,112.067L35.148,112.159L34.873,104.988C34.873,104.597 35.057,104.483 35.331,104.437L35.858,104.368L35.813,103.086L31.895,103.222L31.963,104.575L32.88,104.597L33.154,112.09C33.154,112.411 32.972,112.503 32.696,112.549L32.17,112.617L32.216,113.923L39.937,113.648ZM30.497,114.014L30.268,111.174L28.595,111.174L28.664,111.975C28.687,112.297 28.687,112.503 28.251,112.525L25.64,112.731L25.388,109.73L29.146,109.432L29.008,107.805L25.272,108.103L25.044,105.353L27.449,105.171C27.885,105.125 27.931,105.308 27.954,105.629L28.022,106.27L29.649,106.018L29.443,103.361L21.996,103.956L22.111,105.308L23.05,105.285L23.646,112.755C23.669,113.075 23.509,113.19 23.233,113.237L22.684,113.327L22.798,114.634L30.497,114.014ZM19.979,111.174C19.911,110.784 20.025,110.646 20.369,110.578L20.736,110.487L20.553,109.203L16.543,109.777L16.727,111.128L17.964,110.991L17.986,110.991L18.33,113.373C18.032,113.626 17.299,113.9 16.681,113.992C14.71,114.266 13.656,112.869 13.289,110.372C12.969,107.99 13.702,106.408 15.879,106.111C16.337,106.041 16.772,106.018 17.093,106.087C17.391,106.133 17.46,106.247 17.482,106.545L17.666,107.805L19.293,107.462L18.903,104.758C17.895,104.437 16.749,104.391 15.673,104.53C13.335,104.849 10.724,106.637 11.296,110.784C11.823,114.473 13.908,116.009 16.818,115.574C18.33,115.367 19.591,114.771 20.393,114.038L19.979,111.174ZM9.646,116.49L7.607,107.851C7.538,107.531 7.653,107.347 7.882,107.279L8.432,107.095L8.134,105.835L4.262,106.728L4.583,108.057L5.637,107.851L7.012,113.671L6.966,113.695L0.802,107.508L-2.063,108.172L-1.741,109.501L-0.825,109.341L0.871,116.65C0.962,116.971 0.848,117.108 0.573,117.177L0.023,117.361L0.298,118.62L4.193,117.726L3.872,116.397L2.841,116.604L1.443,110.646L1.489,110.646L7.768,116.903L9.646,116.49ZM-1.191,119.124L-1.443,117.772L-2.36,117.91L-2.383,117.91L-7.424,109.409L-8.317,109.593L-11.09,110.12L-10.838,111.38L-9.807,111.288L-10.93,119.147C-10.998,119.468 -11.066,119.605 -11.342,119.674L-11.846,119.835L-11.594,121.118L-7.905,120.43L-8.18,119.079L-9.143,119.216L-8.936,117.726L-5.201,117.016L-4.674,117.933C-4.491,118.254 -4.628,118.368 -4.949,118.482L-5.545,118.643L-5.315,119.904L-1.191,119.124ZM131.817,106.752C139.676,106.752 145.542,105.353 149.368,102.581C147.787,108.676 145.656,116.627 144.831,118.23C141.624,124.578 134.727,127.831 124.943,127.831C121.3,127.831 117.268,127.395 112.868,126.479C93.002,121.874 72.862,120.293 54.395,120.293C26.579,120.293 2.612,123.89 -10.769,126.159C-12.647,126.479 -14.344,126.778 -15.787,127.03C-18.605,127.511 -20.645,127.877 -21.561,127.969C-23.943,128.175 -26.144,128.289 -28.205,128.289C-49.399,128.289 -52.975,117.222 -56.595,105.514C-53.111,107.645 -47.704,109.387 -39.387,109.387C-37.669,109.387 -35.79,109.317 -33.796,109.158L-33.773,109.158C-33.682,109.158 -33.59,109.135 -33.521,109.135C-29.374,108.767 -24.654,108.012 -19.27,106.774C-15.833,105.972 -12.533,105.193 -9.325,104.414C10.38,99.718 25.96,96.006 45.597,95.96L45.779,95.96C63.469,95.96 90.551,100.794 110.348,104.324L113.532,104.895C120.498,106.133 126.593,106.752 131.817,106.752M-8.226,111.404L-8.821,116.191L-5.865,115.619L-8.18,111.38L-8.226,111.404ZM79.805,106.615L77.697,110.991L80.699,111.38L79.851,106.637L79.805,106.615ZM69.884,105.331L68.875,105.24L68.555,109.065L69.724,109.158C71.145,109.271 72.128,108.883 72.267,107.462C72.404,105.812 71.464,105.469 69.884,105.331M-25.158,-54.256L-24.15,-49.88C-2.131,-54.44 21.171,-56.754 45.138,-56.754C82.325,-56.754 109.729,-51.094 114.541,-50.04L115.411,-53.89C100.495,-57.991 71.9,-60.718 43.786,-60.718C25.548,-60.718 -1.123,-59.595 -25.158,-54.256M20.965,-66.698C20.965,-66.4 21.126,-66.171 21.378,-66.033C21.63,-66.033 21.882,-66.056 22.134,-66.079C22.34,-66.194 22.478,-66.423 22.478,-66.675L22.615,-75.359C22.638,-76.757 23.829,-77.856 25.204,-77.856L25.227,-77.856C25.914,-77.856 26.556,-77.581 27.014,-77.1C27.495,-76.596 27.747,-75.955 27.747,-75.29L27.519,-66.606C27.519,-66.492 27.541,-66.4 27.564,-66.308C28.045,-66.308 28.526,-66.331 28.984,-66.354L29.054,-66.56L29.19,-71.876L29.282,-75.267C29.282,-76.344 28.87,-77.352 28.114,-78.154C27.357,-78.91 26.35,-79.346 25.25,-79.369L25.204,-79.369C23.05,-79.369 21.24,-77.719 21.126,-75.611L21.103,-75.405L20.965,-66.698ZM61.934,-66.813C61.934,-66.583 62.047,-66.377 62.208,-66.239C62.528,-66.217 62.827,-66.217 63.147,-66.194C63.331,-66.331 63.469,-66.537 63.469,-66.79L63.605,-75.496C63.628,-76.871 64.774,-77.971 66.195,-77.971C67.615,-77.948 68.738,-76.802 68.716,-75.405L68.578,-66.606C68.578,-66.308 68.761,-66.056 68.99,-65.919C69.22,-65.919 69.426,-65.896 69.632,-65.896C69.907,-66.01 70.113,-66.262 70.113,-66.583L70.25,-75.382C70.295,-77.604 68.486,-79.46 66.241,-79.483L66.171,-79.483C63.949,-79.483 62.116,-77.719 62.07,-75.496L62.024,-72.312L61.934,-66.813ZM-26.854,-37.163L-13.656,63.424C-13.656,63.424 -13.587,63.653 -13.45,63.882C-13.243,64.202 -12.831,64.615 -12.189,65.096C-6.003,69.724 19.935,80.448 48.941,80.448C66.676,80.448 85.557,76.438 101.778,64.638C102.146,64.363 102.167,63.034 102.167,63.034L117.428,-37.163L-26.854,-37.163ZM-26.556,-43.327L114.082,-43.327C105.353,-45.481 80.103,-50.82 45.069,-50.82C24.196,-50.82 -0.16,-48.941 -26.556,-43.327M-33.613,-91.696L-36.11,-102.19L-30.979,-102.992L-30.474,-96.737L-24.539,-96.737L-24.539,-103.977L-18.101,-104.962L-18.101,-97.928L-12.052,-98.318L-12.052,-105.879L-6.988,-106.658L-5.339,-95.133L-6.507,-95.064L-14.894,-94.445C-15.1,-94.423 -15.306,-94.308 -15.443,-94.147C-15.558,-93.964 -15.626,-93.758 -15.581,-93.552L-12.763,-77.513L-12.189,-74.145L-10.219,-63.009C-9.738,-63.078 -9.233,-63.147 -8.729,-63.215L-8.729,-63.307L-9.531,-67.866L-4.102,-67.866C-3.688,-67.866 -3.346,-68.21 -3.346,-68.623L-3.346,-74.305C-3.346,-74.717 -3.688,-75.061 -4.102,-75.061L-10.792,-75.061L-11.112,-76.894L-4.903,-76.894C-4.468,-76.894 -4.124,-77.238 -4.124,-77.65L-4.124,-83.195C-4.124,-83.608 -4.468,-83.951 -4.88,-83.951L-12.373,-84.089L-13.197,-88.786L-7.607,-88.786C-7.172,-88.786 -6.828,-89.13 -6.828,-89.542L-6.828,-93.506L-5.133,-93.643L-5.109,-93.552L-0.916,-64.681L-0.71,-63.215L0.756,-63.376L3.024,-63.628L4.468,-63.788L4.56,-63.788L9.279,-64.315L10.77,-64.475L10.7,-65.346L10.654,-65.804L10.632,-65.965L10.265,-70.158L16.566,-70.158C16.979,-70.158 17.322,-70.502 17.322,-70.914C17.322,-71.326 16.979,-71.67 16.566,-71.67L10.127,-71.693L10.127,-71.807L9.853,-74.74L19.063,-75.038C19.453,-75.061 19.797,-75.382 19.797,-75.771L19.797,-75.817C19.797,-76.207 19.453,-76.55 19.018,-76.55L9.738,-76.23L9.715,-76.321L9.486,-79.002L16.589,-79.162C17.001,-79.162 17.322,-79.529 17.322,-79.942C17.322,-80.354 16.955,-80.675 16.543,-80.675L9.349,-80.537L9.325,-80.606L8.981,-84.501L20.645,-84.891C21.08,-84.914 21.4,-85.258 21.4,-85.67C21.378,-86.082 21.034,-86.403 20.599,-86.403L8.845,-86.013L8.845,-86.105C8.845,-86.105 8.432,-90.55 8.432,-90.802L16.589,-91.1C17.001,-91.123 17.345,-91.467 17.322,-91.879C17.299,-92.291 16.979,-92.612 16.521,-92.612L8.295,-92.314L8.271,-92.406L8.065,-94.652L14.092,-95.11C14.526,-95.133 14.824,-95.499 14.802,-95.912C14.778,-96.301 14.435,-96.599 13.977,-96.599L7.928,-96.164L6.782,-109.11L13.45,-109.11L13.45,-101.342L20.049,-101.342L20.049,-109.11L26.212,-109.11L26.212,-101.709L32.33,-101.709L32.33,-109.11L37.508,-109.11L37.669,-98.272L32.766,-98.272C32.33,-98.272 31.986,-97.951 31.986,-97.538L31.986,-93.46L26.212,-93.46C25.8,-93.46 25.456,-93.116 25.456,-92.704C25.456,-92.269 25.8,-91.948 26.212,-91.948L37.783,-91.948L37.852,-86.907L32.582,-86.907C32.17,-86.907 31.826,-86.563 31.826,-86.151L31.826,-81.775L29.832,-81.775C29.397,-81.775 29.054,-81.431 29.054,-80.995C29.054,-80.583 29.397,-80.262 29.832,-80.262L37.967,-80.262L38.013,-77.627L33.659,-77.627C33.246,-77.627 32.88,-77.306 32.88,-76.894L32.88,-72.61L30.955,-72.61C30.52,-72.61 30.176,-72.266 30.176,-71.853C30.176,-71.441 30.52,-71.097 30.955,-71.097L38.104,-71.097L38.173,-67.569L38.195,-66.056L43.442,-66.056L51.943,-66.033L53.479,-66.033L53.479,-71.555L59.458,-71.555C59.894,-71.555 60.237,-71.899 60.237,-72.335C60.237,-72.747 59.894,-73.068 59.458,-73.068L53.479,-73.068L53.479,-76.115L56.091,-76.115C56.502,-76.115 56.847,-76.459 56.847,-76.894C56.847,-77.306 56.502,-77.627 56.091,-77.627L53.479,-77.65L53.479,-80.262L60.695,-80.262C61.13,-80.262 61.475,-80.583 61.475,-80.995C61.475,-81.431 61.13,-81.775 60.695,-81.775L53.479,-81.775L53.479,-86.22L57.786,-86.22C58.198,-86.22 58.542,-86.563 58.542,-86.976C58.542,-87.388 58.198,-87.732 57.786,-87.732L53.479,-87.755L53.479,-92.933L63.743,-92.864C64.155,-92.864 64.522,-93.208 64.522,-93.62C64.522,-94.033 64.179,-94.377 63.743,-94.377L53.479,-94.468L53.479,-96.782L57.786,-96.782C58.198,-96.782 58.542,-97.103 58.542,-97.538C58.542,-97.951 58.198,-98.272 57.786,-98.272L53.455,-98.295L53.455,-109.087L58.656,-108.949L58.656,-101.709L64.774,-101.709L64.774,-108.789L70.938,-108.651L70.938,-101.342L77.537,-101.342L77.537,-108.468L84.869,-108.308L83.494,-96.92L76.598,-97.493L76.528,-97.493C76.346,-97.493 76.162,-97.424 76.024,-97.309C75.887,-97.195 75.772,-97.011 75.772,-96.805L75.451,-92.75C75.429,-92.337 75.727,-91.994 76.139,-91.948L82.829,-91.283L82.188,-85.899L75.269,-86.403C75.063,-86.403 74.878,-86.334 74.741,-86.196C74.581,-86.059 74.489,-85.853 74.489,-85.647L74.489,-79.735C74.489,-79.323 74.811,-79.002 75.199,-78.979L81.317,-78.567L81.271,-78.338L81.065,-76.596L81.065,-76.505L75.269,-76.894C75.084,-76.894 74.878,-76.825 74.741,-76.688C74.581,-76.55 74.489,-76.344 74.489,-76.138L74.489,-70.662C74.489,-70.272 74.811,-69.951 75.199,-69.906L80.218,-69.493L79.805,-66.033L79.622,-64.475L81.18,-64.315L88.237,-63.651L89.933,-63.49L91.262,-63.353L92.728,-63.215L92.911,-64.681L93.46,-68.393L95.087,-68.256L95.226,-68.233L96.623,-68.118L100.289,-67.821L99.579,-63.215C100.083,-63.147 100.586,-63.078 101.091,-63.009L101.824,-67.706L102.03,-69.104L102.695,-73.411L102.718,-73.526L102.764,-73.778C102.764,-73.778 102.947,-74.924 102.947,-75.061L103.245,-76.94L103.359,-77.719L103.474,-78.452L104.115,-82.622L104.367,-84.249L105.49,-91.535L105.788,-93.414L106.04,-95.041L104.413,-95.178L99.808,-95.568L98.272,-95.706L96.989,-95.797L98.434,-106.658L103.062,-105.993L103.062,-98.409L109.087,-98.02L109.087,-105.146L115.526,-104.206L115.526,-96.828L121.459,-96.828L121.987,-103.29L128.518,-102.373L126.042,-92.956L118.115,-92.956C117.703,-92.956 117.359,-92.612 117.359,-92.2L117.359,-87.113C117.359,-86.678 117.703,-86.334 118.115,-86.334L124.302,-86.334L123.086,-81.798L116.053,-82.187C115.663,-82.187 115.343,-81.912 115.274,-81.523L114.495,-75.726C114.472,-75.519 114.541,-75.313 114.679,-75.153C114.815,-74.992 114.999,-74.901 115.205,-74.878L121.162,-74.511L120.337,-71.372C119.788,-72.128 118.986,-72.701 117.978,-72.953C117.657,-73.045 117.335,-73.068 117.016,-73.068C115.159,-73.068 113.487,-71.83 113.028,-69.997L111.104,-62.276C111.013,-61.863 111.241,-61.474 111.63,-61.359L111.769,-61.337L111.836,-61.314C112.181,-61.314 112.501,-61.543 112.594,-61.909L114.518,-69.631C114.792,-70.8 115.847,-71.578 116.992,-71.578C117.198,-71.578 117.405,-71.532 117.611,-71.487C118.275,-71.326 118.849,-70.914 119.192,-70.341C119.536,-69.768 119.65,-69.081 119.49,-68.416C119.467,-68.302 119.467,-68.21 119.467,-68.118L117.382,-60.191C117.886,-60.076 118.39,-59.962 118.871,-59.847C118.871,-59.847 121.644,-59.274 122.813,-58.93L121.505,-53.271C121.505,-53.271 119.582,-53.66 117.062,-54.234L116.9,-53.546L115.847,-48.941C116.854,-48.666 117.817,-48.414 118.688,-48.139L117.634,-43.327L124.989,-43.327L108.904,62.392C107.231,63.424 105.972,64.638 105.146,66.104C105.009,66.31 104.895,66.539 104.803,66.746C104.78,66.769 103.749,69.197 102.58,72.589C85.876,82.992 67.065,86.612 49.331,86.612C22.569,86.612 -1.833,78.364 -13.129,72.68C-13.977,70.228 -14.824,67.777 -16.451,65.783C-16.703,65.509 -16.933,65.234 -17.207,64.958C-18.17,63.996 -19.315,63.194 -20.507,62.53L-34.415,-43.327L-26.647,-43.327L-26.808,-43.373L-28.114,-48.139C-27.243,-48.368 -26.35,-48.597 -25.456,-48.803L-26.625,-53.913L-26.808,-54.669C-27.679,-54.509 -28.549,-54.325 -29.442,-54.165C-29.534,-54.165 -29.695,-54.188 -29.695,-54.188L-31.047,-58.953C-30.062,-59.183 -29.076,-59.435 -28.068,-59.664C-27.885,-59.71 -27.725,-59.756 -27.541,-59.779C-27.06,-59.893 -26.556,-60.008 -26.052,-60.122L-28.068,-68.485C-28.091,-69.654 -27.312,-70.708 -26.12,-71.006C-25.914,-71.051 -25.708,-71.074 -25.502,-71.074C-25.044,-71.074 -24.585,-70.96 -24.173,-70.708C-23.6,-70.364 -23.187,-69.814 -23.027,-69.15L-21.08,-61.428C-21.057,-61.314 -21.011,-61.245 -20.965,-61.176C-20.507,-61.268 -20.071,-61.337 -19.613,-61.428C-19.567,-61.543 -19.567,-61.657 -19.613,-61.772L-21.538,-69.516C-21.79,-70.571 -22.454,-71.464 -23.394,-72.014C-24.035,-72.403 -24.746,-72.61 -25.479,-72.61C-25.822,-72.61 -26.144,-72.564 -26.487,-72.472C-27.381,-72.266 -28.137,-71.739 -28.687,-71.074L-29.306,-73.732L-20.025,-76.161C-19.613,-76.253 -19.384,-76.665 -19.476,-77.077C-19.567,-77.421 -19.888,-77.627 -20.209,-77.627L-20.415,-77.604L-23.943,-76.688L-25.135,-82.164C-25.204,-82.53 -25.524,-82.76 -25.868,-82.76L-26.029,-82.76L-31.23,-81.729L-32.124,-85.509L-23.233,-87.068C-22.821,-87.159 -22.546,-87.549 -22.638,-87.961C-22.684,-88.304 -23.004,-88.58 -23.371,-88.58L-23.509,-88.557L-26.671,-88.007L-27.312,-91.948C-27.357,-92.154 -27.473,-92.337 -27.633,-92.452C-27.771,-92.544 -27.931,-92.589 -28.091,-92.589L-28.205,-92.589L-33.613,-91.696ZM-0.962,15.582C-1.1,15.467 -1.26,15.375 -1.421,15.283L-1.512,15.238C-2.337,15.994 -2.795,16.933 -2.704,17.736C-2.635,18.102 -2.451,18.4 -2.177,18.652C-2.108,17.736 -1.741,17.048 -1.031,16.407C-0.939,16.315 -0.642,16.04 -0.642,15.948C-0.642,15.857 -0.894,15.65 -0.962,15.582M-3.162,16.979C-3.048,16.498 -2.841,16.017 -2.475,15.558L-2.543,15.49L-2.681,15.283C-3.139,15.811 -3.391,16.567 -3.254,16.796L-3.162,16.979ZM-1.237,14.413L-1.031,14.505C-0.802,14.619 -0.596,14.734 -0.39,14.917C-0.138,15.146 0.229,15.444 0.229,15.925L0.229,15.948L0.779,14.39C0.871,14.184 1.031,14.024 1.237,13.978L1.879,13.84L1.993,13.84C2.177,13.84 2.36,13.909 2.475,14.047L3.987,15.834L4.102,15.788L4.285,15.765C4.491,15.765 4.674,15.834 4.789,15.971C4.949,16.178 4.972,16.452 4.857,16.681C4.537,17.231 4.033,17.69 3.46,18.011L3.506,18.033C3.688,18.194 3.735,18.423 3.688,18.652C3.46,19.477 2.772,20.187 1.811,20.576L2.956,21.218L3.139,21.379C3.941,21.379 4.537,21.058 4.881,20.416C4.995,20.21 5.201,20.073 5.431,20.073L5.567,20.096L6.049,20.21C6.484,20.302 6.896,20.393 7.31,20.508C7.722,20.622 8.111,21.104 8.02,21.585C7.79,22.845 7.562,23.578 6.874,24.151C7.286,24.082 7.698,23.968 8.088,23.83C9.165,23.441 10.173,22.776 11.25,21.722C11.365,21.608 11.525,21.539 11.686,21.539L11.777,21.562C11.983,21.562 12.144,21.7 12.235,21.86C12.969,23.235 12.625,24.151 11.066,25.022L10.906,25.137C11.158,25.091 11.41,25.068 11.686,25.068C11.869,25.068 12.029,25.091 12.213,25.091C12.304,25.113 12.373,25.113 12.465,25.113C13.037,25.113 13.633,24.907 14.252,24.54C14.642,24.311 15.008,24.036 15.397,23.762L16.039,23.326C16.131,23.258 16.245,23.235 16.383,23.235C16.497,23.235 16.611,23.258 16.703,23.326C16.909,23.441 17.024,23.67 17.001,23.899C16.887,24.953 16.749,26.236 15.031,27.038C14.824,27.13 14.664,27.29 14.572,27.496C15.031,27.061 15.489,26.832 16.223,26.832L16.543,26.832C16.772,26.855 17.024,26.855 17.253,26.855C18.926,26.855 20.095,26.328 20.919,25.182C21.057,24.999 21.24,24.907 21.354,24.838L21.424,24.838L21.812,24.38C22.5,23.624 23.187,22.845 23.829,22.066C24.15,21.7 24.379,21.31 24.585,20.874C24.127,21.333 23.646,21.768 23.165,22.203C22.088,23.12 20.759,23.624 19.338,23.624C19.224,23.624 19.086,23.624 18.949,23.601C17.208,23.51 15.993,22.387 16.016,20.966C16.016,20.76 16.131,20.576 16.291,20.462C16.405,20.393 16.521,20.37 16.635,20.37L16.863,20.416L16.955,20.439L17.162,20.531C17.46,20.645 17.78,20.714 18.078,20.714C19.109,20.714 19.979,20.073 20.232,19.133C20.301,18.835 20.393,18.514 20.461,18.194C20.69,17.139 20.942,16.086 21.47,15.054L20.461,15.1C18.926,15.146 17.391,15.192 15.879,15.238C15.42,15.238 14.939,15.238 14.48,15.261C13.404,15.283 12.281,15.306 11.228,15.306C10.471,15.306 9.738,15.306 9.073,15.261C6.782,15.146 5.041,14.39 3.872,12.97C3.598,12.649 3.139,12.328 2.796,12.076C2.635,11.962 2.429,11.916 2.223,11.916C2.017,11.916 1.811,11.962 1.604,12.053C0.871,12.42 0.229,12.763 -0.321,13.107C-1.054,13.611 -1.421,13.978 -1.581,14.322L-1.535,14.322C-1.443,14.322 -1.329,14.345 -1.237,14.413M80.4,-71.006L80.4,-71.051L80.882,-74.992L80.882,-75.015L76.024,-75.336L76.024,-71.349L80.4,-71.006ZM-3.941,20.21C-3.322,20.393 -2.704,20.599 -2.131,20.829C-1.879,20.897 -1.627,20.989 -1.375,21.081L-1.352,21.012L-1.146,20.92L-1.1,20.943C-0.802,20.989 -0.55,21.058 -0.321,21.058C0.069,21.058 0.321,20.92 0.573,20.576L0.619,20.508C0.436,20.531 0.252,20.554 0.069,20.554C-0.229,20.554 -0.527,20.531 -0.802,20.462L-0.985,20.325L-0.985,20.118L-0.39,18.835C-0.344,18.743 -0.275,18.675 -0.184,18.675L-0.16,18.698C0.023,18.698 0.184,18.698 0.344,18.721L0.229,18.56C-0.022,18.629 -0.275,18.652 -0.504,18.652C-0.939,18.652 -1.306,18.537 -1.604,18.308C-1.673,18.56 -1.673,18.835 -1.673,19.11C-1.673,19.202 -1.719,19.293 -1.787,19.339L-1.925,19.385L-2.039,19.339C-2.589,19.087 -2.956,18.675 -3.116,18.148C-3.986,18.331 -4.102,18.469 -4.284,18.973C-4.354,19.202 -4.376,19.408 -4.422,19.66L-4.422,19.706C-4.468,19.935 -4.445,20.073 -3.941,20.21M-0.206,16.979C-0.092,16.819 0,16.613 0.138,16.452L0.184,16.407L0.16,16.315C0.046,16.59 -0.184,16.796 -0.458,17.048C-0.642,17.208 -0.802,17.392 -0.916,17.575C-0.779,17.621 -0.642,17.644 -0.527,17.644L-0.39,17.644C-0.412,17.483 -0.412,17.323 -0.321,17.185L-0.206,16.979ZM-5.659,-82.462L-12.121,-82.576L-11.388,-78.429L-5.659,-78.429L-5.659,-82.462ZM-3.85,23.83C-3.482,24.013 -3.116,24.105 -2.727,24.105C-2.245,24.105 -1.765,23.968 -1.26,23.693C-0.504,23.303 -0.504,23.303 -0.779,22.753C-0.802,22.684 -0.825,22.616 -0.871,22.524L-0.939,22.364C-0.985,22.249 -0.962,22.135 -0.894,22.066L-0.871,22.066C-1.031,21.906 -1.191,21.7 -1.283,21.493L-1.352,21.539C-1.489,21.608 -1.604,21.631 -1.719,21.631L-1.901,21.608C-2.108,21.516 -2.337,21.47 -2.589,21.47C-3.002,21.47 -3.46,21.585 -3.918,21.7C-4.056,21.745 -4.193,21.768 -4.354,21.814C-4.445,21.837 -4.56,21.929 -4.583,21.974C-4.835,22.593 -4.491,23.464 -3.85,23.83M-4.857,-69.379L-4.857,-73.526L-10.54,-73.526L-9.807,-69.379L-4.857,-69.379ZM-11.204,62.301C-9.646,64.913 8.937,73.894 32.65,77.056C34.987,77.378 37.394,77.63 39.846,77.812C39.982,77.812 40.12,77.836 40.258,77.836C40.739,77.858 41.22,77.905 41.701,77.928C42.183,77.95 42.641,77.996 43.122,78.018C43.694,78.042 44.268,78.042 44.863,78.064C45.229,78.088 45.597,78.111 45.962,78.111C46.902,78.134 47.865,78.157 48.827,78.157C68.716,78.157 85.831,73.024 99.693,62.919C99.808,62.827 99.922,62.209 99.945,61.659L100.357,58.887C94.286,57.581 87.732,56.481 80.882,55.633L80.905,55.656C80.974,55.862 81.02,56.046 81.065,56.229L81.087,56.366C81.111,56.596 81.111,56.825 81.087,57.031C81.042,57.306 80.951,57.581 80.835,57.833L80.813,57.856C80.699,58.108 80.538,58.36 80.332,58.612L80.31,58.635C80.103,58.864 79.874,59.093 79.622,59.276L79.576,59.322C79.484,59.391 79.416,59.459 79.301,59.528L79.163,59.574C78.98,59.666 78.843,59.78 78.637,59.895C78.544,59.941 78.453,59.987 78.292,60.01C78.109,60.055 77.972,60.124 77.834,60.17C77.308,60.857 76.896,61.545 76.711,62.278C76.574,62.736 76.185,63.103 75.703,63.171L75.497,63.194C75.084,63.194 74.695,62.988 74.467,62.621L74.397,62.53C74.306,62.392 74.214,62.255 74.146,62.14C73.802,61.499 73.596,60.857 73.481,60.17C73.344,59.872 73.206,59.597 73,59.368L72.908,59.437C72.862,59.483 72.816,59.574 72.771,59.941C72.519,61.499 71.075,62.667 69.426,62.667C69.242,62.667 69.036,62.667 68.853,62.621L68.669,62.553C68.417,62.507 68.143,62.415 67.913,62.278C67.317,62.598 66.882,63.011 66.583,63.538C66.423,63.79 66.195,63.95 65.919,64.065L65.852,64.134C65.713,64.248 65.554,64.317 65.393,64.317C65.209,64.317 65.05,64.248 64.935,64.111L64.866,64.065C64.82,63.996 64.729,63.928 64.66,63.836C64.477,63.676 64.338,63.446 64.271,63.194C64.041,62.117 64.247,61.017 64.774,60.033C64.568,60.216 64.407,60.422 64.271,60.628C64.133,60.857 63.903,60.995 63.675,61.086L63.583,61.155C63.469,61.292 63.308,61.338 63.147,61.338C62.918,61.316 62.758,61.224 62.644,61.086L62.528,60.949L62.505,60.926C62.276,60.742 62.094,60.536 62.024,60.262C61.818,59.459 61.979,58.612 62.505,57.741C63.033,56.87 63.834,56.206 65.026,55.633C65.141,55.518 65.255,55.427 65.37,55.335L65.622,55.129L65.713,55.06L65.76,54.992C66.149,54.671 66.493,54.442 66.791,54.281C61.017,53.869 55.127,53.594 49.217,53.502C49.193,53.594 49.147,53.685 49.125,53.777C49.033,54.052 48.918,54.35 48.804,54.625C48.667,54.946 48.529,55.243 48.392,55.541C48.231,55.816 48.094,56.114 47.934,56.389C47.773,56.664 47.566,56.916 47.384,57.191C47.2,57.466 47.017,57.741 46.811,57.993C46.604,58.245 46.375,58.474 46.168,58.703C45.94,58.932 45.733,59.184 45.504,59.437C45.619,59.574 45.733,59.758 45.803,59.964C45.849,60.055 45.871,60.147 45.895,60.216C45.917,60.33 45.94,60.445 45.962,60.582C45.962,60.742 45.962,60.903 45.917,61.063L45.895,61.27C45.849,61.522 45.757,61.774 45.597,62.026C45.391,62.346 45.253,62.69 45.184,63.011C44.794,64.661 43.328,65.898 41.609,66.035L41.518,66.035C41.289,66.035 41.083,65.967 40.922,65.898L40.784,65.852C40.602,65.806 40.441,65.669 40.372,65.486C40.304,65.279 40.326,65.073 40.441,64.913L40.532,64.775C40.624,64.638 40.716,64.523 40.784,64.431L40.808,64.386C40.418,64.294 40.144,64.134 39.937,63.836C39.25,64.363 38.677,65.004 38.219,65.738L38.241,65.783C38.287,65.875 38.311,65.967 38.333,66.058C38.379,66.219 38.447,66.379 38.471,66.539C38.493,66.631 38.493,66.723 38.493,66.815C38.517,66.952 38.539,67.09 38.539,67.25C38.517,67.342 38.517,67.433 38.493,67.548C38.471,67.639 38.471,67.754 38.447,67.846C38.379,68.052 38.311,68.258 38.241,68.418C38.195,68.51 38.104,68.579 38.035,68.648C37.943,68.808 37.829,68.969 37.691,69.106C37.577,69.221 37.439,69.335 37.302,69.427C37.165,69.518 37.027,69.61 36.89,69.701C36.775,69.77 36.706,69.839 36.614,69.885L36.478,69.908C36.088,70.091 35.675,70.252 35.194,70.366C34.851,70.434 34.781,70.55 34.735,70.64C34.645,70.847 34.553,71.076 34.483,71.282C34.369,71.58 34.255,71.855 34.14,72.131C34.048,72.313 33.911,72.497 33.796,72.635L33.682,72.795C33.567,72.978 33.384,73.07 33.178,73.07C33.063,73.07 32.948,73.024 32.834,72.955L32.72,72.909C32.49,72.795 32.17,72.635 32.032,72.313C31.757,71.626 31.505,70.916 31.299,70.274L31.093,69.679C31.069,69.587 31.047,69.495 31.023,69.403L31.023,69.358C30.726,69.037 30.565,68.693 30.474,68.35C30.405,68.189 30.359,68.029 30.359,67.846L30.359,67.754C29.901,67.983 29.397,68.098 28.87,68.098C28.641,68.098 28.412,68.075 28.183,68.029L28.045,67.96C27.679,67.868 27.335,67.754 26.969,67.548C26.854,67.479 26.717,67.456 26.625,67.456C26.556,67.456 26.441,67.456 26.281,67.594C25.914,67.846 25.57,68.143 25.25,68.441C25.066,68.602 24.883,68.762 24.7,68.923C24.585,69.014 24.448,69.106 24.311,69.221L24.173,69.312C24.059,69.381 23.944,69.427 23.807,69.427L23.669,69.427C23.509,69.381 23.348,69.266 23.257,69.129L23.233,69.06C23.119,68.923 22.959,68.693 22.959,68.395C22.913,66.631 23.577,65.234 24.975,64.134L25.09,63.905C25.136,63.653 25.227,63.4 25.318,63.148L25.342,63.08C25.456,62.805 25.64,62.53 25.823,62.301L25.823,62.278C25.776,62.186 25.754,62.117 25.731,62.026L25.686,61.843C25.57,61.866 25.456,61.866 25.318,61.911C25.09,61.957 24.86,62.049 24.631,62.14C24.448,62.232 24.242,62.301 24.059,62.369C23.829,62.438 23.623,62.484 23.417,62.507L23.211,62.553L23.073,62.575C22.913,62.575 22.775,62.507 22.638,62.392C22.5,62.255 22.432,62.072 22.454,61.866L22.478,61.728C22.478,61.499 22.478,61.224 22.661,60.971C23.485,59.597 24.792,58.772 26.579,58.543C26.854,58.52 26.991,58.474 27.151,58.291C27.289,58.177 27.403,58.062 27.541,57.97L27.587,57.879L27.725,57.81C27.931,57.672 28.137,57.535 28.366,57.443C28.55,57.351 28.756,57.283 28.962,57.237L29.076,57.214C29.26,57.191 29.443,57.122 29.626,57.122C30.383,57.122 31.115,57.42 31.688,58.039C32.055,58.406 32.513,58.589 33.086,58.589C33.613,58.589 34.186,58.429 34.735,58.131C35.331,57.81 35.882,57.443 36.408,57.054C36.775,56.756 37.165,56.458 37.485,56.114L37.508,56.114C38.287,55.335 38.998,54.465 39.639,53.479C15.489,53.708 -4.17,56.252 -11.96,57.397L-11.342,62.003C-11.342,62.003 -11.296,62.163 -11.204,62.301M-8.363,-90.298L-8.363,-93.414L-13.931,-92.979L-13.473,-90.298L-8.363,-90.298ZM2.589,10.816C3.46,11.297 4.239,11.732 4.857,12.397C4.857,12.397 4.927,12.42 5.109,12.42L5.201,12.42C5.407,12.397 5.613,12.374 5.82,12.374C6.072,12.328 6.324,12.305 6.599,12.305L6.828,12.282C7.08,12.282 7.332,12.305 7.584,12.305C7.813,12.328 8.042,12.328 8.295,12.328C8.523,12.328 8.753,12.328 8.981,12.305C10.036,12.237 10.976,12.007 11.823,11.595L11.342,10.426L11.319,10.449C11.136,10.518 10.952,10.587 10.746,10.61C9.601,10.816 8.386,11.022 7.148,11.205L6.966,11.228C6.69,11.228 6.324,11.114 6.163,10.61C6.117,10.358 6.003,10.128 5.889,9.853L5.82,9.716L5.659,9.762C5.385,9.853 5.133,9.922 4.903,10.014C4.651,10.151 4.399,10.22 4.193,10.22C3.85,10.22 3.552,10.06 3.346,9.739C2.91,9.097 2.452,8.433 2.017,7.745L1.513,7.012L0,7.471C0.39,8.983 1.26,10.106 2.589,10.816M3.712,-76.047L8.203,-76.184L7.951,-78.956L3.712,-78.864L3.712,-76.047ZM96.233,-79.071L96.233,-83.333L95.362,-83.402L94.813,-79.162L96.233,-79.071ZM84.547,-92.658L86.38,-92.475L86.38,-95.155L84.846,-95.293L84.547,-92.658ZM95.271,-94.423L87.916,-95.041L87.916,-92.314L94.928,-91.65L95.271,-94.423ZM102.604,-82.851L97.769,-83.218L97.769,-78.956L101.961,-78.681L102.604,-82.851ZM28.045,59.666C27.816,59.62 27.564,59.597 27.312,59.597C26.098,59.597 24.746,60.101 24.035,60.834C23.875,60.971 23.715,61.178 23.623,61.43C25.342,60.811 25.548,60.788 27.403,60.949L28.045,59.666ZM51.943,-92.933L45.94,-92.979L43.442,-92.979L43.442,-87.732L51.943,-87.732L51.943,-92.933ZM51.943,-96.782L48.047,-96.782L48.047,-94.468L51.943,-94.468L51.943,-96.782ZM95.226,-74.053L94.148,-74.122L93.599,-69.906L95.226,-69.768L95.226,-74.053ZM51.943,-86.22L47.933,-86.22L47.933,-81.775L51.943,-81.775L51.943,-86.22ZM51.943,-76.115L47.933,-76.115L47.933,-73.068L51.943,-73.068L51.943,-76.115ZM51.943,-80.262L43.442,-80.262L43.442,-77.627L51.943,-77.627L51.943,-80.262ZM43.442,-71.555L43.442,-67.569L51.943,-67.546L51.943,-71.555L43.442,-71.555ZM93.095,-77.765L82.829,-78.452L82.577,-76.413L92.819,-75.726L93.095,-77.765ZM92.613,-74.237L85.212,-74.717L85.212,-70.593L89.062,-70.272L89.153,-70.295L89.359,-70.272L92.085,-70.043L92.613,-74.237ZM100.519,-69.333L101.183,-73.663L96.737,-73.961L96.737,-69.654L100.519,-69.333ZM101.732,-77.192L94.606,-77.673L94.354,-75.634L101.412,-75.153L101.732,-77.192ZM104.275,-93.643L99.669,-94.033L99.669,-91.192L103.817,-90.779L104.275,-93.643ZM91.399,-64.888L91.879,-68.531L89.909,-68.691L89.909,-65.025L91.399,-64.888ZM39.296,-92.681L39.479,-80.995L39.708,-67.592L41.907,-67.592L41.907,-72.335C41.907,-72.747 42.251,-73.068 42.663,-73.068L46.42,-73.068L46.42,-76.115L42.663,-76.115C42.251,-76.115 41.907,-76.459 41.907,-76.894L41.907,-80.995C41.907,-81.431 42.251,-81.775 42.663,-81.775L46.42,-81.775L46.42,-86.22L42.663,-86.22C42.251,-86.22 41.907,-86.563 41.907,-86.976L41.907,-93.735C41.907,-94.147 42.251,-94.491 42.663,-94.491L46.536,-94.491L46.536,-96.782L39.227,-96.782L39.296,-92.704L39.296,-92.681ZM84.364,-91.146L83.7,-85.784L91.308,-85.212L91.308,-90.481L84.364,-91.146ZM83.333,-95.408L77.239,-95.935L77.032,-93.368L83.013,-92.796L83.013,-92.819L83.333,-95.408ZM94.722,-90.137L92.819,-90.321L92.819,-85.097L94.034,-85.005L94.722,-90.137ZM83.7,-70.731L83.7,-74.832L82.417,-74.901L81.936,-70.868L83.7,-70.731ZM76.024,-80.423L81.478,-80.056L81.569,-80.835L82.004,-84.363L82.004,-84.387L76.024,-84.822L76.024,-80.423ZM93.851,-83.516L83.517,-84.272L83.013,-79.965L93.277,-79.254L93.851,-83.516ZM88.397,-65.163L88.397,-68.829L81.752,-69.379L81.317,-65.85L88.397,-65.163ZM66.012,56.687C66.012,56.596 65.988,56.596 65.943,56.596C65.919,56.596 65.852,56.618 65.713,56.664C64.683,57.145 63.995,57.695 63.583,58.383C63.239,58.955 63.102,59.459 63.239,59.941C63.857,59.001 64.843,58.337 66.332,57.833L66.286,57.627C66.195,57.306 66.104,56.985 66.012,56.687M67.042,56.046C67.157,55.977 67.294,55.908 67.455,55.839L67.639,55.725C67.867,55.656 68.097,55.587 68.303,55.564C68.188,55.518 68.097,55.473 68.028,55.427L67.937,55.358L67.409,55.358C67.135,55.518 66.836,55.725 66.562,55.954C66.653,56.046 66.722,56.137 66.791,56.252L66.836,56.229C66.928,56.137 66.974,56.091 67.042,56.046M68.944,60.536C68.921,60.055 68.716,59.528 68.395,59.162C68.257,59.001 68.097,58.932 67.937,58.932C67.798,58.932 67.593,59.001 67.363,59.138C65.943,59.964 65.187,61.545 65.484,62.919C66.171,61.728 67.271,60.971 68.944,60.536M34.415,-72.61L38.081,-72.61L38.035,-76.115L34.415,-76.115L34.415,-72.61ZM75.291,58.131C74.833,58.268 74.649,58.451 74.626,58.772C74.535,59.758 74.741,60.651 75.223,61.522C75.314,61.659 75.406,61.797 75.497,61.934C75.841,60.742 76.528,59.597 77.651,58.474C77.262,58.131 76.78,57.993 76.253,57.993C75.956,57.993 75.635,58.039 75.291,58.131M54.83,33.637L54.899,33.453C54.968,33.247 54.99,33.11 55.014,33.041L54.968,32.995L54.899,32.904C53.822,35.149 52.745,37.761 52.584,40.602C52.929,40.327 53.203,40.075 53.479,39.824L53.593,39.64C53.546,39.021 53.593,38.403 53.707,37.784C53.937,36.593 54.304,35.263 54.83,33.637M41.815,64.936C42.343,64.844 42.824,64.615 43.259,64.225C43.764,63.79 44.016,63.309 44.107,62.644L42.205,63.561C42.365,63.882 42.343,64.202 42.159,64.523C42.067,64.661 41.953,64.798 41.815,64.936M32.17,65.257C32.078,65.325 31.963,65.463 31.895,65.623C31.849,65.715 31.803,65.783 31.757,65.875C31.895,65.738 32.055,65.6 32.216,65.463C32.536,65.234 32.857,64.958 33.178,64.683C32.834,64.867 32.513,65.073 32.17,65.257M73.709,-6.277L74.626,-6.048C74.878,-5.979 75.063,-5.773 75.084,-5.521C75.108,-5.269 74.993,-5.04 74.765,-4.903C74.467,-4.742 74.168,-4.673 73.87,-4.673L72.382,-4.673C71.786,-4.673 71.099,-4.673 70.388,-4.719C69.196,-4.765 68.165,-5.177 67.341,-5.933C66.882,-6.369 66.423,-6.781 65.919,-7.148C65.232,-7.652 64.201,-7.95 63.079,-7.996C63.973,-7.514 64.66,-6.85 65.164,-6.002C65.324,-5.75 65.438,-5.521 65.576,-5.269C65.782,-4.88 66.012,-4.49 66.241,-4.123C67.294,-2.588 68.99,-1.58 71.418,-1.099C74.901,-0.411 75.588,2.155 75.818,4.285C75.841,4.561 75.681,4.813 75.451,4.927C75.383,4.95 75.291,4.973 75.199,4.973C75.039,4.973 74.855,4.904 74.741,4.79L72.886,2.819C72.128,2.017 71.235,1.651 70.067,1.651C69.907,1.651 69.746,1.674 69.563,1.674C69.379,1.697 69.22,1.697 69.036,1.697C67.845,1.697 66.836,1.307 66.104,0.551L66.058,0.505C65.988,1.949 66.47,3.782 69.059,4.515C69.632,4.652 70.411,4.882 71.145,5.202C72.725,5.866 73.458,7.402 72.954,8.937C72.908,9.12 72.771,9.258 72.587,9.326L72.382,9.349C72.267,9.349 72.152,9.326 72.061,9.281L71.717,9.075C71.464,8.937 71.212,8.8 70.96,8.639C70.663,8.479 70.342,8.387 70.021,8.387C69.609,8.387 69.196,8.502 68.761,8.754C67.615,9.418 66.607,9.83 65.576,10.014C65.874,10.151 66.195,10.22 66.516,10.266L66.745,10.312C67.317,10.381 67.913,10.472 68.462,10.679C69.104,10.908 69.518,11.32 69.632,11.847C69.77,12.443 69.518,13.084 68.944,13.634C68.692,13.886 68.395,14.116 68.143,14.345C67.546,14.848 66.951,15.329 66.355,15.834L66.264,15.903C64.98,16.956 63.651,18.056 62.368,19.179C58.244,22.799 55.22,26.236 53.135,29.742C50.774,33.706 49.469,37.349 49.125,40.854C48.759,44.704 51.989,48.278 56.479,48.989C57.373,49.126 58.267,49.195 59.184,49.195C61.314,49.195 63.56,48.828 66.104,48.095C66.928,47.866 67.776,47.568 68.578,47.293L69.036,47.133L68.372,46.078C68.188,46.124 68.028,46.17 67.867,46.216L67.707,46.284C66.905,46.537 66.149,46.766 65.347,46.949C63.56,47.385 61.956,47.591 60.489,47.591C59.161,47.591 57.946,47.43 56.801,47.087C53.57,46.124 51.806,44.291 51.554,41.657C51.416,40.35 51.6,38.861 52.035,37.28C53.135,33.316 55.242,29.512 58.267,25.961C61.91,21.7 66.699,17.758 72.932,13.886C74.261,13.061 75.818,12.145 77.651,11.778C78.063,11.686 78.453,11.641 78.796,11.641C79.874,11.641 80.722,12.03 81.293,12.763C81.615,13.176 81.707,13.657 81.592,14.116C81.455,14.642 81.042,15.1 80.4,15.375C80.194,15.467 79.896,15.536 79.645,15.536C79.324,15.536 79.072,15.444 78.911,15.238C78.75,15.054 78.683,14.825 78.659,14.619C78.247,14.871 78.018,15.192 78.063,15.49C78.063,15.65 78.385,15.857 78.843,15.879C78.957,15.903 79.048,15.903 79.141,15.903C80.423,15.903 81.798,15.261 82.738,14.23C83.402,13.496 83.723,12.718 83.632,12.007C83.563,11.388 83.172,10.976 82.257,10.541C82.051,10.449 81.913,10.243 81.89,10.014C81.89,9.876 81.936,9.762 82.004,9.647C80.516,9.83 79.002,10.518 77.673,11.137C77.605,11.182 77.514,11.205 77.421,11.205C77.239,11.205 77.056,11.137 76.941,10.999C76.758,10.793 76.734,10.495 76.896,10.266L76.941,10.174L77.078,9.991C79.712,6.783 81.317,3.759 82.027,0.826C82.875,-2.817 82.395,-5.773 80.516,-8.179C78.499,-10.791 75.475,-12.693 71.281,-13.999C70.571,-14.228 69.815,-14.411 69.104,-14.594C68.417,-14.755 67.752,-14.938 67.088,-15.121C65.484,-15.603 64.407,-16.702 64.109,-18.169C63.857,-19.452 64.271,-20.804 65.209,-21.926C62.711,-21.056 60.878,-18.787 61.063,-16.542C61.269,-14.526 62.528,-12.899 63.721,-11.57C65.943,-9.164 69.22,-7.423 73.709,-6.277M26.899,64.363C25.892,64.638 24.929,65.44 24.402,66.471C24.127,66.998 24.013,67.548 24.035,68.029C24.86,66.929 26.098,66.31 27.862,66.058C27.908,65.302 27.771,64.821 27.403,64.454C27.357,64.408 27.175,64.34 26.991,64.34L26.899,64.363ZM49.858,32.927L50.019,32.514C48.735,32.56 47.314,32.766 45.597,33.179L45.481,33.27C42.595,35.791 40.602,37.899 39.089,40.098C37.508,42.344 37.394,44.475 38.769,46.445C39.433,47.385 40.258,48.278 41.06,49.126C41.335,49.447 41.633,49.744 41.907,50.065C42.113,50.271 42.572,50.776 42.205,51.577C40.716,55.037 38.471,57.535 35.331,59.23C34.575,59.643 33.796,59.849 33.086,59.849C32.192,59.849 31.391,59.528 30.795,58.887C30.451,58.543 30.038,58.36 29.626,58.36C29.214,58.36 28.778,58.52 28.366,58.864L28.572,58.909C28.756,58.955 28.893,59.07 28.984,59.23C29.054,59.414 29.054,59.597 28.962,59.758L28.526,60.674C28.687,60.651 28.848,60.628 29.008,60.628C29.672,60.628 30.222,60.857 30.703,61.292L30.955,61.292C31.093,61.316 31.207,61.316 31.345,61.316C32.261,61.316 33.154,61.086 34.048,60.651C34.14,60.605 34.231,60.605 34.323,60.605C34.529,60.605 34.735,60.697 34.851,60.88C35.033,61.155 34.942,61.522 34.689,61.705C33.773,62.346 32.628,62.69 31.528,62.69C30.817,62.69 30.153,62.553 29.558,62.255C29.352,62.163 29.1,62.095 28.848,62.095L28.732,62.095C27.702,62.186 26.831,62.782 26.464,63.584L26.671,63.515C26.762,63.492 26.899,63.492 26.991,63.492C27.289,63.492 27.747,63.561 28.022,63.859C28.778,64.592 28.778,65.577 28.71,66.356C28.687,66.539 28.572,66.7 28.412,66.792C28.572,66.837 28.732,66.837 28.87,66.837C29.786,66.837 30.589,66.287 31.093,65.257C31.185,65.05 31.391,64.729 31.734,64.523C32.284,64.202 32.857,63.859 33.407,63.538L34.048,63.194C34.14,63.125 34.255,63.103 34.346,63.103C34.507,63.103 34.645,63.148 34.735,63.24L34.896,63.355C35.033,63.469 35.103,63.63 35.103,63.813C35.125,63.996 35.033,64.157 34.896,64.271C34.689,64.477 34.483,64.661 34.277,64.867C33.796,65.302 33.292,65.761 32.766,66.15C32.032,66.723 31.619,67.25 31.597,67.708L31.597,67.846C31.872,67.456 32.284,67.319 32.468,67.25C32.902,67.09 33.338,67.021 33.75,67.021C34.599,67.021 35.331,67.319 36.019,67.937C36.134,68.052 36.202,68.212 36.202,68.395C36.202,68.533 36.156,68.671 36.064,68.762C36.568,68.51 36.936,68.189 37.142,67.823C37.371,67.387 37.348,66.86 37.096,66.264C37.05,66.104 36.844,65.6 37.119,65.142C37.806,64.042 38.699,63.125 39.822,62.369C39.937,62.301 40.052,62.278 40.188,62.278L40.372,62.301C40.556,62.369 40.693,62.507 40.762,62.667C40.922,63.08 40.945,63.171 41.266,63.217C41.335,63.08 41.449,62.965 41.587,62.896L44.107,61.659C44.198,61.637 44.313,61.613 44.405,61.613L44.52,61.407C44.817,60.903 44.817,60.559 44.52,60.193C44.428,60.078 44.313,59.987 44.244,59.895L44.084,59.758C43.946,59.62 43.9,59.437 43.924,59.253C43.924,59.07 44.038,58.909 44.198,58.818L44.405,58.703L44.565,58.589C46.627,56.664 47.865,54.442 48.369,51.806C48.438,51.394 48.323,51.28 48.071,51.142C47.773,50.982 47.521,50.776 47.292,50.592L47.085,50.432C46.055,49.676 45.849,48.576 46.467,47.476C46.765,46.949 47.108,46.422 47.452,45.918C47.704,45.529 47.956,45.162 48.186,44.772L48.231,44.543C48.186,44.291 48.117,44.062 48.025,43.81C47.91,43.49 47.795,43.1 47.75,42.687C47.452,40.625 47.819,38.334 48.827,35.493C49.147,34.622 49.491,33.751 49.858,32.927M32.766,68.075C32.33,68.235 32.238,68.418 32.192,68.671C32.101,69.656 32.307,70.572 32.812,71.466C32.88,71.603 32.972,71.718 33.063,71.855C33.43,70.596 34.14,69.427 35.217,68.395C34.759,68.052 34.277,67.891 33.75,67.891C33.43,67.891 33.109,67.937 32.766,68.075M77.627,19.614C76.001,20.416 74.467,21.47 73.114,22.753C71.946,23.853 70.801,24.999 69.7,26.098C69.242,26.58 68.784,27.038 68.326,27.496C68.21,27.679 68.004,27.794 67.798,27.794C67.569,27.794 67.387,27.657 67.317,27.611C65.713,26.328 63.605,25.595 60.878,25.366L60.695,25.388C58.726,27.473 57.075,29.696 55.77,32.056C56.365,32.56 56.365,32.95 56.067,33.843L56.021,34.026C55.518,35.584 55.173,36.845 54.921,38.036C54.716,39.159 54.808,40.304 55.22,41.45C55.976,43.421 57.786,44.429 60.787,44.543L61.337,44.543C63.376,44.543 65.416,44.2 67.317,43.81C67.5,43.787 67.661,43.764 67.821,43.764C68.372,43.764 68.761,43.993 69.036,44.429C69.312,44.887 69.585,45.345 69.884,45.781C70.273,46.399 70.64,46.972 71.007,47.568L71.099,47.728C71.351,48.14 71.67,48.668 71.648,49.286C71.557,50.592 71.418,52.127 71.053,53.685C70.892,54.281 70.295,54.717 69.746,55.129C69.632,55.221 69.518,55.312 69.402,55.404C69.288,55.473 69.22,55.541 69.127,55.564C69.356,55.61 69.563,55.633 69.792,55.702L69.93,55.725L70.043,55.656C70.434,55.221 70.801,54.808 71.189,54.35L71.67,53.8C71.786,53.662 71.969,53.594 72.128,53.594C72.244,53.594 72.358,53.617 72.473,53.685C72.725,53.846 72.839,54.19 72.702,54.442C72.29,55.404 71.603,56.206 70.686,56.87C70.434,57.054 70.113,57.099 69.884,57.099C69.77,57.099 69.654,57.077 69.54,57.054C69.15,56.985 68.875,56.939 68.669,56.939C68.257,56.939 67.958,57.054 67.294,57.741L67.226,57.787L67.249,57.833C67.294,57.97 67.271,58.108 67.226,58.245C67.479,58.131 67.73,58.062 67.958,58.062C68.372,58.062 68.716,58.245 69.036,58.566C69.585,59.184 69.861,60.033 69.792,60.788C69.77,61.063 69.585,61.27 69.333,61.338C69.242,61.361 69.15,61.361 69.059,61.407C69.173,61.43 69.312,61.43 69.426,61.43C70.457,61.43 71.396,60.697 71.533,59.758C71.603,59.299 71.694,58.726 72.244,58.36C72.221,58.245 72.221,58.108 72.221,57.993C72.244,57.581 72.267,56.298 73.664,55.633C73.755,55.587 73.87,55.541 73.939,55.518C74.443,55.289 74.719,55.175 74.787,54.9C74.855,54.625 75.108,54.419 75.383,54.419L75.521,54.442C75.864,54.511 76.07,54.831 76.001,55.175C75.795,56.16 75.635,56.344 74.649,56.71C74.489,56.756 74.352,56.847 74.191,56.962C73.894,57.168 73.688,57.512 73.642,57.833C73.642,58.039 73.688,58.222 73.802,58.406C73.916,57.97 74.237,57.535 75.039,57.306C75.475,57.168 75.887,57.122 76.253,57.122C77.124,57.122 77.857,57.42 78.453,58.039C78.567,58.154 78.637,58.337 78.613,58.474C79.347,58.016 79.782,57.443 79.851,56.847C79.919,56.321 79.712,55.862 79.232,55.427C78.98,55.198 78.843,54.808 78.911,54.442C78.935,54.304 78.98,54.167 79.026,54.052C79.118,53.617 79.118,53.617 79.026,53.548C78.729,53.365 78.659,52.975 78.843,52.7C78.957,52.517 79.163,52.425 79.37,52.425C79.46,52.425 79.576,52.448 79.69,52.517C80.08,52.746 80.264,52.861 80.47,52.861C80.583,52.861 80.722,52.815 80.882,52.723C80.859,52.609 80.882,52.471 80.928,52.334L82.004,50.111L82.097,49.973C81.981,49.79 81.913,49.63 81.845,49.447C81.798,49.401 81.661,49.332 81.271,49.195C81.134,49.149 80.905,49.126 80.699,49.126C80.583,49.103 80.446,49.103 80.354,49.103C80.103,49.08 79.896,48.897 79.828,48.668C79.805,48.576 79.782,48.507 79.759,48.438C79.736,48.324 79.712,48.232 79.667,48.14C78.407,45.529 76.552,43.1 74.146,40.969C73.709,40.579 73.366,40.419 72.978,40.419C72.68,40.419 72.358,40.533 71.969,40.74C71.786,40.854 71.603,40.9 71.441,40.946C70.869,41.106 70.342,41.198 69.861,41.198C69.22,41.198 68.646,41.038 68.119,40.74C67.661,40.488 67.387,40.167 67.294,39.778C67.203,39.388 67.317,38.975 67.639,38.517C67.937,38.082 68.188,37.716 68.417,37.417C70.457,34.805 70.686,32.262 69.173,29.65C68.921,29.261 68.99,28.619 69.288,28.275L69.792,27.702C70.617,26.717 71.487,25.709 72.45,24.792C74.214,23.074 76.024,21.929 78.018,21.241C78.729,21.012 79.416,20.874 80.034,20.874C81.18,20.874 82.165,21.264 82.92,22.02C83.448,22.524 83.837,23.143 84.066,23.784C84.96,26.488 84.594,29.444 82.967,32.583C81.592,35.195 79.553,37.647 76.392,40.556L76.116,40.785L77.147,41.863L77.514,41.542C77.834,41.244 78.179,40.946 78.477,40.625C81.065,38.059 84.204,34.576 85.511,30.383C86.633,26.763 86.519,23.693 85.098,21.058C84.25,19.431 82.92,18.629 81.249,18.629C80.171,18.629 78.957,18.95 77.627,19.614M82.692,53.502C83.104,53.136 83.311,52.746 83.356,52.288C83.426,51.669 83.196,51.188 82.646,50.753L81.867,52.425C82.509,52.632 82.668,53.067 82.692,53.502M103.588,-89.29L96.233,-90L95.569,-84.891L102.832,-84.341L103.588,-89.29ZM6.736,-84.432L6.966,-80.446L7.813,-80.468L7.446,-84.455L6.736,-84.432ZM33.521,-96.782L33.521,-93.46L37.737,-93.46L37.691,-96.759L37.691,-96.782L33.521,-96.782ZM4.376,-65.3L9.119,-65.827L8.729,-70.158L4.124,-70.158L4.376,-65.3ZM8.295,-74.695L8.295,-71.67L8.592,-71.67L8.317,-74.695L8.295,-74.695ZM6.553,-94.514L6.003,-94.491L6.003,-92.223L6.759,-92.246L6.553,-94.514ZM33.338,-81.775L37.943,-81.775L37.875,-85.395L33.338,-85.395L33.338,-81.775ZM98.158,-94.17L96.807,-94.285L96.439,-91.512L98.158,-91.329L98.158,-94.17ZM2.704,-90.596L2.704,-85.807L7.31,-85.967L6.874,-90.756L2.704,-90.596ZM0.596,-64.888L-3.598,-93.758L4.491,-94.377L4.491,-92.177L1.902,-92.085C1.489,-92.062 1.169,-91.718 1.169,-91.306L1.169,-85.028C1.169,-84.799 1.26,-84.616 1.397,-84.478C1.558,-84.341 1.741,-84.272 1.925,-84.272L1.971,-84.272L5.225,-84.387L5.431,-80.423L2.933,-80.354C2.521,-80.354 2.2,-80.01 2.2,-79.621L2.2,-75.267C2.2,-75.061 2.269,-74.855 2.429,-74.717C2.566,-74.58 2.75,-74.511 2.956,-74.511L2.979,-74.511L6.759,-74.626L6.759,-71.67L3.322,-71.67C3.116,-71.67 2.91,-71.578 2.772,-71.441C2.635,-71.28 2.566,-71.074 2.566,-70.868L2.864,-65.14L0.596,-64.888Z" style="fill:rgb(27,67,46);fill-rule:nonzero;"/>
        </g>
    </g>
</svg>
